<?xml version="1.0" encoding="UTF-8"?>
<svg xmlns="http://www.w3.org/2000/svg" xmlns:xlink="http://www.w3.org/1999/xlink" width="132px" height="80px" viewBox="0 0 131 80" version="1.1">
<g id="surface1">
<path style=" stroke:none;fill-rule:evenodd;fill:rgb(0%,31.764706%,9.019608%);fill-opacity:1;" d="M 20.792969 42.84375 C 21.042969 42.730469 21.269531 42.710938 21.566406 42.796875 C 21.605469 43.132812 21.550781 43.433594 21.71875 43.726562 C 21.878906 44.027344 22.09375 43.992188 22.054688 44.453125 C 21.980469 45.234375 21.839844 44.359375 21.839844 46.316406 C 21.839844 47.933594 21.304688 48.726562 20.183594 47.238281 C 19.976562 46.957031 19.6875 46.710938 19.855469 46.304688 C 20.144531 46.191406 20.210938 46.398438 20.519531 46.417969 C 20.539062 46.0625 20.25 46.023438 20.332031 45.488281 C 20.398438 45.128906 20.566406 45.027344 20.398438 44.601562 C 20.304688 44.386719 20.304688 44.300781 20.324219 44.054688 C 20.34375 43.792969 20.359375 43.832031 20.519531 43.699219 C 20.894531 43.398438 20.746094 43.332031 20.792969 42.84375 Z M 19.332031 41.835938 C 19.78125 41.816406 19.941406 42.578125 20.238281 41.5625 C 21.148438 38.503906 20.097656 35.417969 20.351562 33.523438 C 20.464844 32.714844 20.746094 31.558594 21.101562 30.878906 C 21.382812 30.972656 21.503906 31.847656 21.566406 32.140625 C 21.988281 33.761719 21.699219 35.210938 21.464844 36.742188 C 21.082031 39.238281 22.523438 41.769531 22.636719 42.4375 C 22.289062 42.429688 22.046875 42.324219 21.660156 42.316406 C 20.808594 42.296875 19.144531 42.796875 19.332031 41.835938 Z M 18.734375 35.085938 C 18.546875 34.878906 17.816406 34.605469 17.636719 33.949219 C 17.433594 33.1875 18.078125 32.800781 18.441406 32.535156 C 18.949219 32.179688 19.265625 31.765625 19.921875 31.726562 C 20.988281 31.671875 19.613281 33.015625 19.988281 35.445312 C 20.089844 36.132812 20.265625 36.734375 20.265625 37.402344 C 20.265625 38.484375 20.332031 40.773438 19.808594 41.449219 C 19.539062 41.441406 19.152344 41.1875 19.003906 41.554688 C 18.863281 41.929688 19.164062 42.183594 18.984375 42.492188 C 18.601562 43.085938 15.644531 41.109375 16.019531 39.914062 C 16.113281 39.640625 16.460938 39.3125 16.769531 39.199219 C 17.46875 38.9375 17.414062 39.257812 18.996094 38.503906 C 19.378906 38.316406 19.761719 38.277344 19.742188 37.796875 C 19.554688 37.589844 19.324219 37.523438 19.136719 37.289062 C 18.910156 37.015625 18.996094 36.753906 18.96875 36.375 C 18.210938 35.867188 18.675781 35.765625 18.734375 35.085938 Z M 26.226562 40.527344 C 25.65625 41.582031 23.578125 43.125 22.804688 41.675781 L 22.074219 39.519531 C 21.363281 36.808594 22.167969 36.894531 22.167969 34.351562 C 22.167969 33.203125 21.980469 32.453125 21.960938 31.773438 C 22.324219 31.625 22.792969 31.71875 23.160156 31.839844 C 23.5625 31.980469 23.664062 32.160156 23.90625 32.480469 C 25.367188 34.417969 25.125 34.832031 23.703125 35.894531 C 23.335938 36.179688 23.242188 36.246094 23.316406 36.867188 C 23.382812 37.476562 23.195312 37.65625 23.222656 38.089844 C 23.890625 38.457031 24.441406 38.75 25.113281 39.066406 C 25.683594 39.339844 26.722656 39.605469 26.226562 40.527344 Z M 22.914062 27.839844 C 23.261719 27.753906 23.535156 27.585938 23.785156 27.53125 C 23.898438 28.347656 23.535156 29.109375 24.292969 29.617188 C 25.066406 30.136719 25.777344 29.695312 26.519531 29.75 C 26.246094 30.617188 24.796875 31.992188 27.976562 32.519531 C 27.914062 32.742188 27.996094 32.621094 27.800781 32.800781 C 27.304688 33.242188 26.808594 33.722656 26.828125 34.464844 C 26.863281 35.445312 27.949219 35.878906 28.023438 36.179688 C 27.398438 36.261719 26.554688 36.453125 26.03125 36.773438 C 25.824219 36.914062 25.730469 37.027344 25.515625 37.121094 C 25.589844 36.535156 26.332031 35.566406 26.332031 33.902344 C 26.339844 32.261719 25.601562 31.132812 24.777344 30.316406 C 23.683594 29.222656 22.832031 28.855469 22.074219 28.246094 L 21.953125 28.121094 C 21.953125 28.105469 21.933594 28.105469 21.921875 28.085938 C 22.175781 27.933594 22.625 27.914062 22.914062 27.839844 Z M 15.878906 29.730469 C 16.644531 29.789062 17.46875 30.050781 18.117188 29.601562 C 18.722656 29.167969 18.601562 28.359375 18.59375 27.558594 C 18.910156 27.613281 19.183594 27.773438 19.539062 27.847656 C 19.847656 27.914062 20.191406 27.972656 20.472656 28.046875 C 20.417969 28.246094 19.640625 28.695312 19.460938 28.820312 C 18.535156 29.449219 17.226562 30.597656 16.703125 31.453125 C 16.1875 32.28125 15.964844 33.167969 16.085938 34.410156 C 16.121094 34.871094 16.261719 35.417969 16.414062 35.847656 C 16.554688 36.246094 16.816406 36.761719 16.890625 37.140625 C 16.570312 37.035156 16.507812 36.761719 15.765625 36.5 C 15.335938 36.347656 14.820312 36.234375 14.34375 36.167969 C 14.464844 35.925781 14.765625 35.792969 15.128906 35.398438 C 16.394531 34.015625 14.484375 32.847656 14.371094 32.546875 C 14.539062 32.460938 15.214844 32.367188 15.449219 32.28125 C 17.3125 31.632812 15.945312 30.164062 15.878906 29.730469 Z M 16.890625 27.546875 C 16.878906 27.539062 16.871094 27.511719 16.863281 27.519531 C 16.851562 27.539062 16.824219 27.425781 16.664062 27.332031 C 15.496094 27.652344 14.429688 29.761719 14.007812 30.832031 C 13.457031 32.214844 13.109375 34.558594 13.316406 36.300781 C 13.652344 39.011719 14.578125 40.808594 16.75 42.175781 C 17.125 42.410156 17.359375 42.550781 17.722656 42.71875 C 17.992188 42.832031 18.621094 43.03125 18.722656 43.257812 C 18.378906 43.472656 17.824219 43.164062 17.28125 43.152344 L 17.179688 42.984375 C 16.917969 42.652344 16.058594 42.464844 15.65625 42.429688 C 15.046875 42.371094 15.140625 42.511719 14.632812 42.578125 C 14.269531 42.636719 13.988281 42.4375 13.625 42.390625 C 12.605469 42.257812 12.359375 42.605469 11.902344 43.050781 C 11.070312 43.847656 10.480469 43.066406 10.105469 43.21875 C 9.722656 44.234375 11.265625 46.578125 13.054688 45.675781 C 13.867188 45.261719 13.96875 44.660156 14.503906 44.140625 C 14.785156 43.867188 15.175781 43.847656 15.578125 43.746094 C 15.765625 43.699219 16.46875 43.351562 16.644531 43.445312 C 15.777344 44.105469 14.980469 43.6875 14.539062 44.847656 C 14.355469 45.335938 14.390625 45.835938 14.148438 46.257812 C 13.820312 46.824219 13.566406 46.71875 12.886719 46.683594 C 12.976562 47.3125 13.800781 47.773438 14.4375 47.945312 C 16.1875 48.386719 17.160156 47.324219 17.703125 45.777344 C 17.824219 45.449219 17.9375 45.074219 18.078125 44.742188 C 18.199219 44.453125 18.367188 44.019531 18.695312 43.933594 C 18.601562 45.128906 17.460938 46.890625 19.957031 48.3125 C 20.15625 48.414062 20.453125 48.566406 20.652344 48.6875 C 20.921875 48.867188 21.0625 49.074219 21.289062 49.148438 C 22 48.105469 24.160156 48.105469 23.9375 45.589844 C 23.890625 44.96875 23.664062 44.421875 23.625 43.839844 C 24.488281 44.074219 24.488281 46.464844 25.75 47.5 C 27.304688 48.78125 29.503906 47.3125 29.484375 46.636719 C 28.828125 46.597656 28.578125 46.84375 28.25 46.238281 C 28.015625 45.824219 27.988281 45.363281 27.835938 44.894531 C 27.40625 43.480469 26.210938 44.113281 25.796875 43.378906 C 26.179688 43.453125 26.460938 43.632812 26.882812 43.71875 C 28.6875 44.085938 28.082031 45.101562 29.335938 45.65625 C 30.109375 46.003906 30.960938 45.761719 31.488281 45.261719 C 31.890625 44.867188 32.789062 43.265625 32.140625 43.171875 C 32.03125 43.164062 32.078125 43.164062 31.964844 43.191406 C 31.730469 43.265625 31.375 43.464844 30.878906 43.3125 C 30.242188 43.105469 30.15625 42.070312 28.53125 42.398438 C 27.15625 42.671875 28.269531 42.523438 27.117188 42.398438 C 27.714844 42.277344 28.605469 42.03125 29.175781 42.03125 C 30.214844 42.042969 31.738281 43.425781 32.542969 41.355469 C 32.722656 40.894531 32.796875 39.6875 32.488281 39.273438 C 32 39.304688 32.179688 39.839844 30.972656 39.953125 C 29.972656 40.046875 29.988281 39.945312 29.261719 40.46875 C 27.828125 41.496094 28.222656 40.835938 27.125 41.714844 C 26.875 41.910156 26.582031 42.050781 26.78125 42.363281 C 26.386719 42.398438 25.695312 42.578125 25.375 42.777344 L 25.152344 42.992188 C 25.144531 43.003906 25.132812 43.019531 25.125 43.03125 L 25.085938 43.117188 C 24.5625 43.058594 24.085938 43.445312 23.664062 43.21875 C 23.738281 43.058594 23.683594 43.117188 23.890625 43.019531 C 24.675781 42.652344 24.824219 42.644531 25.695312 42.078125 C 27.808594 40.714844 28.96875 38.84375 29.175781 36.09375 C 29.351562 33.542969 28.707031 30.429688 27.21875 28.59375 C 26.957031 28.28125 26.753906 28.046875 26.453125 27.785156 C 25.574219 27.019531 25.628906 27.425781 25.480469 27.558594 C 25.3125 27.425781 25.011719 27.066406 24.523438 26.671875 C 24.121094 26.363281 23.84375 26.175781 23.402344 25.890625 C 22.859375 25.535156 22.15625 25.121094 21.699219 24.714844 C 21.484375 24.535156 21.4375 24.339844 21.210938 24.246094 C 20.921875 24.46875 20.988281 24.566406 20.222656 25.121094 C 19.566406 25.589844 18.546875 26.117188 17.890625 26.605469 C 17.253906 27.085938 17.09375 27.398438 16.890625 27.546875 Z M 16.890625 27.546875 "/>
<path style=" stroke:none;fill-rule:evenodd;fill:rgb(0%,31.764706%,9.019608%);fill-opacity:1;" d="M 9.628906 59.433594 C 9.496094 59.21875 9.207031 58.25 9.066406 57.910156 C 8.871094 57.449219 8.617188 56.96875 8.375 56.519531 C 7.308594 54.503906 6.523438 53.222656 5.640625 51.039062 C 5.222656 50.023438 4.960938 49.042969 4.613281 47.933594 C 3.828125 45.375 3.660156 43.417969 3.546875 40.734375 C 3.5 39.652344 3.445312 37.9375 3.125 37.027344 C 2.964844 36.546875 2.949219 36.628906 3.226562 36.246094 C 3.695312 35.613281 3.957031 34.992188 4.257812 34.230469 C 5.210938 31.8125 5.53125 30.84375 7.019531 28.714844 C 8.964844 25.9375 12.632812 22.390625 15.503906 20.707031 C 17.722656 19.40625 17.703125 19.585938 19.761719 18.777344 C 21.492188 18.089844 21.082031 17.910156 21.90625 18.363281 L 24.046875 19.3125 C 24.945312 19.6875 25.964844 20.207031 26.800781 20.660156 C 29.230469 21.984375 29.570312 22.324219 31.523438 24.140625 C 32.386719 24.941406 34.621094 27.785156 35.257812 28.6875 C 36.089844 29.84375 36.867188 31.292969 37.464844 32.675781 C 37.960938 33.824219 38.382812 35.199219 39.085938 36.234375 C 39.289062 36.535156 39.382812 36.535156 39.242188 36.902344 C 38.308594 39.371094 39.101562 43.417969 37.8125 47.847656 C 37.175781 50.050781 36.457031 51.933594 35.527344 53.769531 C 34.847656 55.117188 34.011719 56.546875 33.433594 57.871094 C 33.171875 58.457031 33.011719 59.210938 32.929688 59.398438 C 31.691406 59.5 31.054688 59.578125 29.980469 59.933594 C 27.191406 60.855469 24.320312 61.488281 21.269531 61.488281 C 15.300781 61.488281 14.230469 60 9.628906 59.433594 Z M 1.535156 36.328125 C 1.570312 36.414062 1.496094 36.339844 1.601562 36.46875 C 1.675781 36.574219 1.742188 36.535156 1.917969 36.828125 C 2.675781 38.023438 2.386719 39.839844 2.488281 40.667969 C 2.527344 40.941406 2.582031 41.007812 2.574219 41.347656 C 2.5625 42.109375 2.628906 43.71875 2.789062 44.421875 C 2.890625 44.875 2.917969 45.355469 3.011719 45.855469 C 3.199219 46.804688 3.453125 47.539062 3.707031 48.394531 C 4.742188 51.859375 4.800781 52 6.570312 55.351562 C 7.007812 56.179688 8.664062 58.859375 8.609375 59.867188 L 8.570312 60.574219 C 10.039062 60.621094 9.386719 60.253906 11.59375 60.835938 C 12.5 61.074219 13.425781 61.363281 14.269531 61.601562 C 16.9375 62.324219 17.46875 62.417969 20.3125 62.417969 C 22.972656 62.417969 24.742188 62.417969 27.230469 61.808594 C 28.707031 61.441406 31.476562 60.421875 32.601562 60.421875 C 33.066406 60.421875 33.84375 60.695312 34.03125 60.621094 C 34.164062 60.234375 33.777344 60.160156 34.03125 59.21875 C 34.273438 58.296875 34.613281 57.777344 35.015625 56.980469 L 36.652344 53.824219 C 37 53.128906 37.296875 52.375 37.625 51.59375 C 38.242188 50.117188 38.746094 48.453125 39.148438 46.703125 C 39.375 45.730469 39.644531 43.417969 39.664062 42.371094 C 39.675781 42.109375 39.636719 41.835938 39.65625 41.570312 C 39.675781 41.289062 39.738281 41.15625 39.738281 40.847656 C 39.738281 39.960938 39.84375 39.152344 39.925781 38.351562 C 40.078125 36.96875 40.667969 36.621094 40.730469 36.5 C 40.480469 35.886719 40.160156 36.761719 38.859375 33.410156 C 38.019531 31.238281 37.296875 29.601562 35.996094 27.660156 C 35.605469 27.066406 34.789062 26.144531 34.292969 25.648438 C 32.527344 23.878906 32.898438 23.792969 30.652344 21.921875 C 29.953125 21.335938 28.585938 20.441406 27.707031 19.972656 C 25.882812 18.984375 24.429688 18.4375 22.710938 17.609375 C 22.390625 17.457031 22.15625 17.335938 21.914062 17.167969 C 21.398438 16.808594 21.492188 16.714844 21.183594 16.667969 C 21.007812 17.042969 20.996094 17.101562 20.605469 17.316406 C 20.351562 17.449219 20.0625 17.570312 19.742188 17.683594 C 19.117188 17.910156 18.519531 18.128906 17.929688 18.34375 C 16.382812 18.910156 13.847656 20.441406 12.5 21.523438 L 11.152344 22.652344 C 10.902344 22.84375 10.78125 23.039062 10.515625 23.257812 C 9.730469 23.925781 7.53125 26.238281 6.980469 27.085938 C 5.277344 29.683594 4.632812 30.34375 3.472656 33.382812 C 3.21875 34.042969 2.703125 35.425781 2.238281 35.867188 C 2.019531 36.074219 1.675781 36.167969 1.535156 36.328125 Z M 1.535156 36.328125 "/>
<path style=" stroke:none;fill-rule:evenodd;fill:rgb(0%,31.764706%,9.019608%);fill-opacity:1;" d="M 20.714844 52.246094 C 20.941406 52.386719 20.78125 52.527344 21.101562 52.695312 C 21.429688 52.640625 21.351562 52.460938 21.550781 52.246094 C 21.839844 52.882812 20.707031 53.382812 20.714844 52.246094 Z M 16.179688 50.75 C 16.441406 51.105469 17.046875 51.492188 16.9375 52.121094 C 16.554688 52.199219 16.449219 51.960938 16.367188 51.632812 C 16.335938 51.492188 16.179688 50.832031 16.179688 50.75 Z M 25.367188 52.140625 C 25.3125 51.707031 25.375 51.585938 25.636719 51.285156 C 25.742188 51.164062 26.058594 50.738281 26.179688 50.671875 C 26.152344 50.824219 26.097656 50.910156 26.050781 51.066406 C 26.003906 51.257812 25.996094 51.378906 25.957031 51.558594 C 25.871094 51.925781 25.777344 52.167969 25.367188 52.140625 Z M 30.589844 47.097656 C 30.683594 47.179688 30.691406 47.359375 30.597656 47.464844 C 30.382812 47.679688 29.988281 47.386719 30.214844 47.144531 C 30.214844 47.144531 30.375 46.890625 30.589844 47.097656 Z M 11.902344 47.566406 C 11.105469 47.304688 12.210938 46.578125 12.109375 47.433594 Z M 12.144531 48.09375 C 12.296875 49.289062 12.136719 50.203125 12.867188 51.433594 C 14.679688 54.492188 18.976562 53.824219 20.566406 54.984375 C 20.792969 55.152344 20.894531 55.378906 21.101562 55.53125 C 21.34375 55.425781 21.390625 55.226562 21.632812 55.039062 C 23.347656 53.675781 29.074219 54.644531 29.972656 49.929688 C 30.101562 49.242188 30.074219 49.148438 30.09375 48.519531 L 30.128906 48.179688 C 30.261719 47.785156 30.851562 48.132812 31.132812 47.492188 C 31.476562 46.691406 30.203125 46.191406 29.539062 47.019531 C 28.980469 47.707031 29.925781 48.875 28.144531 50.191406 C 27.03125 51.011719 27.742188 51.914062 26.722656 51.785156 C 26.601562 51.21875 27.433594 50.859375 27.707031 50.53125 C 28.128906 50.03125 27.996094 48.941406 27.773438 48.714844 C 27.527344 48.800781 27.660156 49.140625 27.21875 49.601562 L 26.339844 50.304688 C 26.386719 50.03125 26.675781 49.035156 26.320312 48.621094 C 26.105469 48.753906 26.144531 48.875 26.011719 49.121094 C 25.554688 49.976562 24.628906 50.503906 24.394531 51.5 C 24.300781 51.894531 24.355469 52.613281 23.859375 52.574219 C 23.476562 51.800781 24.851562 50.703125 24.992188 49.476562 C 25.03125 49.089844 24.964844 48.480469 24.695312 48.28125 C 24.617188 48.339844 24.664062 48.28125 24.601562 48.375 C 24.429688 48.621094 24.570312 48.726562 24.085938 49.382812 C 23.101562 50.703125 23.148438 50.050781 23.046875 51.738281 C 23.027344 51.972656 22.933594 53.082031 22.484375 52.667969 C 21.980469 52.207031 23.289062 51.019531 23.207031 49.535156 C 23.195312 49.316406 23.160156 49.121094 23.121094 48.921875 C 23.007812 48.480469 23.027344 48.535156 22.898438 48.453125 C 22.738281 48.621094 22.683594 49.007812 22.570312 49.214844 C 22.449219 49.449219 22.324219 49.628906 22.175781 49.882812 C 21.53125 51.019531 21.820312 50.777344 21.605469 51.425781 C 21.398438 51.078125 21.738281 50.277344 21.914062 50.015625 C 22.167969 49.636719 22.511719 49.242188 22.523438 48.734375 C 21.894531 48.820312 21.464844 49.441406 21.101562 49.515625 C 20.800781 49.269531 20.230469 48.800781 19.800781 48.734375 C 19.789062 49.449219 20.6875 49.890625 20.714844 51.132812 L 20.613281 50.992188 C 20.472656 50.703125 20.546875 50.589844 20.070312 49.777344 C 19.929688 49.554688 19.820312 49.394531 19.707031 49.1875 C 19.59375 48.980469 19.519531 48.628906 19.417969 48.46875 C 19.042969 48.59375 18.996094 50.0625 19.238281 50.664062 C 19.40625 51.078125 20.097656 52.234375 19.863281 52.695312 C 19.292969 52.996094 19.277344 52.121094 19.265625 51.738281 C 19.21875 49.695312 18.527344 50.222656 17.871094 48.894531 C 17.769531 48.6875 17.75 48.453125 17.621094 48.300781 C 17.339844 48.421875 17.265625 49.042969 17.292969 49.421875 C 17.320312 49.855469 17.488281 50.222656 17.675781 50.550781 C 17.898438 50.9375 18.761719 52.066406 18.40625 52.582031 C 17.9375 52.582031 18.011719 51.878906 17.898438 51.492188 C 17.648438 50.589844 17.03125 50.183594 16.570312 49.570312 C 16.167969 49.035156 16.167969 48.675781 15.945312 48.582031 C 15.636719 49.25 15.925781 50.023438 15.933594 50.316406 C 15.691406 50.183594 14.972656 49.535156 14.804688 49.214844 C 14.679688 48.988281 14.710938 48.847656 14.53125 48.714844 C 14.261719 49.027344 14.195312 49.957031 14.464844 50.390625 C 14.710938 50.765625 15.300781 51.066406 15.53125 51.417969 C 15.8125 51.847656 15.316406 51.878906 15.101562 51.726562 C 14.914062 51.605469 14.851562 51.21875 14.765625 50.992188 C 14.457031 50.210938 14.242188 50.34375 13.765625 49.863281 C 12.34375 48.441406 13.445312 47.519531 12.566406 46.832031 C 12.15625 46.511719 11.332031 46.503906 11.144531 47.03125 C 10.855469 47.847656 11.816406 47.90625 12.144531 48.09375 Z M 12.144531 48.09375 "/>
<path style=" stroke:none;fill-rule:evenodd;fill:rgb(0.784314%,0.784314%,0.784314%);fill-opacity:1;" d="M 120.792969 33.777344 C 120.855469 33.609375 120.902344 33.488281 121.023438 33.375 C 121.164062 33.570312 121.753906 34.917969 121.753906 35.191406 L 120.210938 35.164062 Z M 115.363281 34.570312 C 115.34375 34.203125 115.316406 32.867188 115.390625 32.582031 C 115.839844 32.535156 116.148438 32.460938 116.496094 32.695312 C 117.292969 33.242188 117.039062 34.777344 115.363281 34.570312 Z M 114.054688 32.320312 C 114.0625 32.328125 114.082031 32.339844 114.089844 32.339844 C 114.109375 32.347656 114.128906 32.359375 114.136719 32.367188 C 114.148438 32.367188 114.167969 32.375 114.183594 32.386719 C 114.34375 32.441406 114.484375 32.40625 114.597656 32.574219 C 114.773438 32.808594 114.699219 34.351562 114.699219 34.691406 C 114.699219 35.144531 114.785156 36.554688 114.578125 36.78125 C 114.410156 36.960938 114.222656 36.875 114.054688 37.007812 C 114.261719 37.109375 115.824219 37.109375 116.027344 37.007812 C 115.824219 36.6875 115.375 37.234375 115.355469 36.214844 C 115.34375 35.8125 115.328125 35.21875 115.375 34.824219 C 115.917969 34.777344 115.859375 34.796875 116.113281 35.171875 L 117.449219 37.035156 C 117.816406 37.082031 119.976562 37.109375 120.171875 37.007812 C 119.910156 36.648438 119.21875 37.308594 120.089844 35.433594 L 121.894531 35.445312 C 122.765625 37.082031 122.054688 36.773438 121.875 37.007812 C 122.054688 37.101562 123.523438 37.109375 123.703125 37.007812 C 123.609375 36.828125 123.363281 36.949219 123.140625 36.621094 C 123.027344 36.46875 122.945312 36.246094 122.851562 36.019531 C 122.699219 35.652344 121.390625 32.328125 121.195312 32.207031 C 120.988281 32.386719 119.679688 35.679688 119.445312 36.207031 C 119.277344 36.582031 119.144531 36.914062 118.667969 36.914062 C 118.226562 36.902344 117.957031 36.660156 117.742188 36.40625 C 117.46875 36.085938 116.683594 34.984375 116.582031 34.75 C 116.851562 34.523438 117.339844 34.597656 117.601562 33.957031 C 117.824219 33.410156 117.621094 32.894531 117.253906 32.613281 C 116.644531 32.121094 114.277344 32.207031 114.054688 32.320312 Z M 114.054688 32.320312 "/>
<path style=" stroke:none;fill-rule:evenodd;fill:rgb(0%,31.764706%,9.019608%);fill-opacity:1;" d="M 15.691406 42.296875 C 15.671875 42.015625 14.898438 41.421875 14.53125 41.296875 C 12.875 40.726562 13.164062 40.027344 11.453125 39.980469 C 10.238281 39.945312 10.386719 39.378906 9.882812 39.304688 C 9.574219 39.746094 9.648438 41.042969 9.851562 41.554688 C 10.113281 42.175781 10.609375 42.550781 11.398438 42.53125 C 12.117188 42.511719 12.398438 41.976562 13.464844 42.070312 C 14.167969 42.136719 14.972656 42.605469 15.691406 42.296875 Z M 15.691406 42.296875 "/>
<path style=" stroke:none;fill-rule:evenodd;fill:rgb(0.784314%,0.784314%,0.784314%);fill-opacity:1;" d="M 100.160156 32.320312 C 100.167969 32.328125 100.1875 32.339844 100.195312 32.339844 L 100.316406 32.394531 C 100.441406 32.433594 100.597656 32.421875 100.710938 32.546875 C 100.925781 32.773438 100.824219 35.738281 100.824219 36.214844 C 100.824219 36.441406 100.832031 36.675781 100.683594 36.808594 C 100.523438 36.949219 100.300781 36.882812 100.160156 37.007812 C 100.335938 37.101562 101.972656 37.109375 102.152344 37.007812 C 102.011719 36.707031 101.488281 37.242188 101.488281 36.214844 C 101.488281 35.726562 101.476562 35.21875 101.496094 34.730469 C 101.65625 34.804688 102.984375 36.140625 103.21875 36.40625 C 103.292969 36.488281 103.425781 36.621094 103.320312 36.800781 C 103.246094 36.914062 103.238281 36.867188 103.152344 36.914062 C 103.023438 36.988281 103.125 36.894531 103.011719 37.007812 C 103.238281 37.121094 104.988281 37.109375 105.210938 37.007812 C 105.203125 36.996094 105.183594 36.980469 105.183594 36.980469 C 104.988281 36.835938 104.949219 36.902344 104.6875 36.78125 C 104.527344 36.707031 104.425781 36.640625 104.285156 36.519531 L 102.179688 34.410156 L 103.855469 32.714844 C 104.351562 32.320312 104.453125 32.535156 104.59375 32.320312 C 104.40625 32.226562 103.097656 32.214844 102.910156 32.320312 L 102.976562 32.367188 C 102.984375 32.367188 103.003906 32.375 103.011719 32.386719 L 103.285156 32.5 C 103.339844 32.941406 102.769531 33.363281 102.507812 33.617188 C 102.292969 33.835938 101.738281 34.398438 101.507812 34.53125 C 101.308594 31.425781 101.984375 32.855469 102.132812 32.273438 C 101.730469 32.273438 100.402344 32.1875 100.160156 32.320312 Z M 100.160156 32.320312 "/>
<path style=" stroke:none;fill-rule:evenodd;fill:rgb(0.784314%,0.784314%,0.784314%);fill-opacity:1;" d="M 91.203125 36.695312 L 91.195312 32.675781 C 92.328125 32.179688 93.824219 32.847656 93.832031 34.691406 C 93.832031 36.582031 92.140625 37.140625 91.203125 36.695312 Z M 89.894531 32.320312 L 90.054688 32.394531 C 90.210938 32.441406 90.316406 32.40625 90.4375 32.554688 C 90.550781 32.695312 90.550781 32.941406 90.550781 33.167969 L 90.550781 36.214844 C 90.550781 36.441406 90.539062 36.667969 90.410156 36.800781 C 90.25 36.949219 90.035156 36.882812 89.894531 37.007812 C 90.128906 37.128906 91.261719 37.054688 91.625 37.054688 C 93.179688 37.054688 94.609375 36.601562 94.609375 34.636719 C 94.601562 33.523438 94.03125 32.714844 93.179688 32.441406 C 92.730469 32.300781 90.242188 32.132812 89.894531 32.320312 Z M 89.894531 32.320312 "/>
<path style=" stroke:none;fill-rule:evenodd;fill:rgb(0.784314%,0.784314%,0.784314%);fill-opacity:1;" d="M 53.007812 34.492188 C 52.980469 31.738281 53.101562 32.742188 53.652344 32.320312 C 53.4375 32.214844 51.875 32.214844 51.671875 32.320312 C 51.886719 32.648438 52.335938 32.066406 52.351562 33.167969 L 52.34375 36.214844 C 52.324219 37.15625 51.980469 36.761719 51.671875 37.007812 C 51.875 37.109375 53.4375 37.109375 53.652344 37.007812 L 53.34375 36.894531 C 53.242188 36.867188 53.203125 36.867188 53.128906 36.78125 C 52.914062 36.554688 53 35.066406 53.015625 34.738281 C 53.28125 34.851562 53.8125 35.472656 54.039062 35.699219 C 54.449219 36.113281 54.878906 36.40625 54.878906 36.789062 C 54.710938 36.921875 54.65625 36.855469 54.542969 37.007812 C 54.757812 37.121094 56.515625 37.109375 56.730469 37.007812 C 56.640625 36.855469 56.421875 36.882812 56.21875 36.78125 C 55.703125 36.546875 53.886719 34.664062 53.699219 34.410156 C 53.8125 34.191406 54.597656 33.46875 54.796875 33.261719 C 54.972656 33.074219 55.140625 32.882812 55.375 32.714844 C 55.488281 32.628906 55.617188 32.535156 55.722656 32.5 C 55.925781 32.40625 56.011719 32.480469 56.105469 32.320312 C 55.917969 32.226562 54.609375 32.226562 54.421875 32.320312 C 54.570312 32.441406 55.074219 32.386719 54.691406 32.921875 C 54.535156 33.140625 54.335938 33.316406 54.179688 33.488281 C 53.945312 33.714844 53.269531 34.410156 53.007812 34.492188 Z M 53.007812 34.492188 "/>
<path style=" stroke:none;fill-rule:evenodd;fill:rgb(0.784314%,0.784314%,0.784314%);fill-opacity:1;" d="M 80.386719 32.320312 C 80.554688 32.441406 80.808594 32.394531 80.9375 32.574219 C 81.117188 32.820312 81.050781 35.753906 81.03125 36.214844 C 81.003906 37.222656 80.527344 36.707031 80.359375 37.007812 C 80.546875 37.109375 82.15625 37.109375 82.351562 37.007812 C 82.097656 36.707031 81.6875 37.175781 81.6875 36.214844 C 81.6875 35.738281 81.679688 35.226562 81.695312 34.75 C 81.929688 34.8125 82.5 35.480469 82.71875 35.6875 C 82.914062 35.886719 83.578125 36.421875 83.578125 36.761719 C 83.410156 36.914062 83.296875 36.867188 83.222656 37.007812 C 83.410156 37.109375 85.253906 37.109375 85.441406 37.007812 C 85.363281 36.855469 85.140625 36.894531 84.925781 36.800781 C 84.382812 36.554688 82.519531 34.617188 82.398438 34.410156 C 82.511719 34.164062 83.886719 32.847656 84.082031 32.695312 C 84.597656 32.3125 84.644531 32.535156 84.785156 32.320312 C 84.597656 32.226562 83.296875 32.214844 83.109375 32.320312 C 83.25 32.441406 83.296875 32.386719 83.492188 32.488281 C 83.523438 32.828125 83.363281 32.960938 83.183594 33.148438 C 82.902344 33.441406 81.960938 34.417969 81.695312 34.511719 C 81.539062 31.738281 82.007812 32.734375 82.351562 32.320312 C 82.136719 32.207031 80.582031 32.226562 80.386719 32.320312 Z M 80.386719 32.320312 "/>
<path style=" stroke:none;fill-rule:evenodd;fill:rgb(0%,31.764706%,9.019608%);fill-opacity:1;" d="M 12.210938 36.300781 C 12.117188 36.132812 11.210938 35.078125 11.003906 35.011719 C 10.769531 35.191406 9.929688 36.835938 11.519531 37.449219 C 12.265625 37.742188 12.171875 37.628906 12.59375 38.222656 C 12.828125 38.558594 13.128906 39.144531 13.566406 39.125 C 13.632812 38.511719 12.667969 37.28125 12.632812 37.0625 C 12.886719 37.128906 12.792969 37.175781 13.117188 37.214844 C 13.070312 35.3125 12.660156 35.800781 12.566406 35.152344 C 12.425781 34.144531 12.136719 34.277344 11.894531 33.234375 C 11.332031 33.25 11.210938 34.382812 11.414062 34.898438 C 11.507812 35.164062 11.667969 35.378906 11.882812 35.546875 C 12.050781 35.6875 12.21875 35.800781 12.257812 36.019531 C 12.332031 36.433594 12.265625 36.214844 12.210938 36.300781 Z M 12.210938 36.300781 "/>
<path style=" stroke:none;fill-rule:evenodd;fill:rgb(0%,31.764706%,9.019608%);fill-opacity:1;" d="M 29.242188 37.1875 C 29.570312 37.1875 29.476562 37.082031 29.746094 36.988281 C 29.671875 37.296875 28.734375 38.410156 28.800781 39.078125 C 29.277344 39.078125 29.523438 38.542969 29.746094 38.203125 C 30.15625 37.589844 30.148438 37.714844 30.859375 37.402344 C 32.234375 36.808594 31.851562 35.5 31.363281 34.972656 C 31.007812 35.125 30.363281 36.019531 30.074219 36.3125 C 29.867188 35.800781 30.644531 35.558594 30.925781 34.925781 C 31.1875 34.34375 31.027344 33.363281 30.523438 33.1875 C 30.449219 33.316406 30.429688 33.476562 30.375 33.628906 C 30.296875 33.816406 30.222656 33.910156 30.128906 34.070312 C 29.988281 34.363281 29.859375 34.730469 29.792969 35.085938 C 29.699219 35.652344 29.511719 35.445312 29.382812 35.992188 C 29.324219 36.234375 29.242188 36.902344 29.242188 37.1875 Z M 29.242188 37.1875 "/>
<path style=" stroke:none;fill-rule:evenodd;fill:rgb(0.784314%,0.784314%,0.784314%);fill-opacity:1;" d="M 43.324219 42.03125 C 43.714844 42.222656 43.484375 43.566406 43.558594 44.574219 C 43.621094 45.535156 44.539062 45.910156 45.503906 45.648438 C 47.1875 45.1875 45.851562 42.324219 46.644531 42.03125 C 47.132812 41.855469 47.636719 42.164062 47.636719 42.597656 L 47.636719 45.015625 C 47.636719 45.222656 47.648438 45.347656 47.515625 45.46875 C 47.460938 45.515625 47.382812 45.535156 47.335938 45.554688 L 48.375 45.636719 C 48.367188 45.628906 48.339844 45.628906 48.328125 45.617188 L 47.984375 45.46875 C 47.769531 45.269531 47.863281 43.191406 47.878906 42.757812 C 48.292969 42.984375 49.984375 45.554688 50.386719 45.714844 C 50.40625 44.996094 50.398438 44.273438 50.398438 43.558594 C 50.398438 41.523438 50.425781 42.269531 50.902344 41.910156 L 49.660156 41.921875 C 49.75 41.984375 49.949219 41.996094 50.050781 42.089844 C 50.257812 42.285156 50.164062 44.207031 50.152344 44.628906 C 49.59375 44.328125 48.234375 41.910156 47.691406 41.910156 L 45.914062 42.023438 C 46.1875 42.136719 46.160156 42.304688 46.160156 42.652344 C 46.160156 44.054688 46.402344 45.335938 45.222656 45.488281 C 43.761719 45.664062 44.054688 44.121094 44.054688 42.542969 C 44.054688 42.164062 44.089844 42.097656 44.34375 42.003906 L 43.035156 41.921875 Z M 43.324219 42.03125 "/>
<path style=" stroke:none;fill-rule:evenodd;fill:rgb(0.784314%,0.784314%,0.784314%);fill-opacity:1;" d="M 96.929688 32.566406 C 97.453125 32.320312 98.054688 32.507812 98.371094 32.808594 C 99.175781 33.570312 99.335938 36.234375 97.96875 36.789062 C 96.816406 37.261719 96.136719 36.300781 95.96875 35.285156 C 95.882812 34.757812 95.921875 34.023438 96.070312 33.5625 C 96.257812 32.96875 96.480469 32.773438 96.929688 32.566406 Z M 95.171875 35.144531 C 95.425781 37.148438 98.035156 37.890625 99.296875 36.152344 C 99.671875 35.640625 99.804688 34.957031 99.710938 34.183594 C 99.371094 31.339844 94.714844 31.53125 95.171875 35.144531 Z M 95.171875 35.144531 "/>
<path style=" stroke:none;fill-rule:evenodd;fill:rgb(0.784314%,0.784314%,0.784314%);fill-opacity:1;" d="M 127.40625 32.40625 C 127.96875 32.546875 127.855469 32.59375 127.855469 33.730469 C 127.855469 34.335938 127.902344 35.226562 127.820312 35.8125 L 124.964844 32.273438 C 124.609375 32.273438 123.980469 32.179688 123.710938 32.320312 C 123.8125 32.46875 124.535156 32.460938 124.628906 32.996094 L 124.628906 36.105469 C 124.636719 37.15625 124.328125 36.742188 123.992188 37.007812 C 124.1875 37.101562 125.375 37.101562 125.582031 37.007812 C 125.058594 36.621094 124.9375 37.46875 124.9375 35.480469 C 124.9375 34.785156 124.925781 34.070312 124.945312 33.375 C 125.140625 33.476562 125.265625 33.675781 125.394531 33.84375 C 125.515625 34.003906 125.628906 34.144531 125.769531 34.316406 L 127.332031 36.246094 C 127.511719 36.46875 127.867188 37.054688 128.15625 37.121094 C 128.210938 35.785156 128.128906 34.324219 128.164062 32.996094 C 128.175781 32.246094 128.566406 32.527344 128.820312 32.320312 C 128.640625 32.226562 127.371094 32.226562 127.199219 32.320312 Z M 127.40625 32.40625 "/>
<path style=" stroke:none;fill-rule:evenodd;fill:rgb(0%,31.764706%,9.019608%);fill-opacity:1;" d="M 21.914062 42.0625 C 21.914062 42.042969 21.921875 42.023438 21.921875 42.015625 L 21.644531 40.933594 C 21.539062 40.554688 21.464844 40.132812 21.429688 39.71875 C 21.351562 38.804688 21.222656 38.050781 21.257812 37.0625 C 21.296875 36.09375 21.800781 32.5 21.15625 32 C 20.613281 32.613281 20.933594 37.890625 20.726562 39.679688 C 20.671875 40.132812 20.671875 40.488281 20.59375 40.902344 L 20.390625 41.714844 C 20.378906 41.777344 20.378906 41.789062 20.378906 41.855469 C 20.390625 41.976562 20.378906 41.929688 20.417969 41.996094 C 20.6875 42.109375 21.625 42.164062 21.914062 42.0625 Z M 21.914062 42.0625 "/>
<path style=" stroke:none;fill-rule:evenodd;fill:rgb(0%,31.764706%,9.019608%);fill-opacity:1;" d="M 18.441406 59.792969 C 18.566406 59.546875 18.808594 57.308594 18.734375 56.988281 C 18.527344 56.894531 18.03125 56.875 17.769531 56.894531 L 17.226562 58.550781 C 17.09375 58.351562 17.105469 57.921875 17.066406 57.65625 C 16.984375 56.902344 17.226562 56.628906 16.046875 56.707031 C 15.90625 56.933594 15.671875 59.144531 15.730469 59.511719 C 15.90625 59.558594 16.027344 59.59375 16.195312 59.566406 C 16.449219 59.511719 16.382812 59.199219 16.441406 58.730469 C 16.46875 58.429688 16.421875 58.117188 16.554688 57.9375 C 16.691406 58.222656 16.664062 58.710938 16.710938 59.078125 C 16.769531 59.671875 16.757812 59.71875 17.394531 59.671875 C 17.722656 59.179688 17.761719 58.382812 18.03125 58.144531 C 17.976562 59.746094 17.488281 59.785156 18.441406 59.792969 Z M 18.441406 59.792969 "/>
<path style=" stroke:none;fill-rule:evenodd;fill:rgb(0%,31.764706%,9.019608%);fill-opacity:1;" d="M 27.773438 40.902344 C 28.210938 41.082031 28.96875 40.507812 29.230469 40.328125 C 29.839844 39.894531 29.859375 39.839844 30.699219 39.671875 C 32.617188 39.285156 32.496094 37.570312 32.152344 37.109375 C 31.90625 37.15625 31.878906 37.394531 31.589844 37.570312 C 30.945312 37.984375 30.328125 37.589844 29.632812 38.644531 C 29.035156 39.546875 28.839844 39.210938 28.53125 39.578125 C 28.316406 39.839844 28.164062 40.292969 27.976562 40.535156 C 27.789062 40.773438 27.78125 40.640625 27.773438 40.902344 Z M 27.773438 40.902344 "/>
<path style=" stroke:none;fill-rule:evenodd;fill:rgb(0%,31.764706%,9.019608%);fill-opacity:1;" d="M 14.597656 40.949219 C 14.585938 40.695312 14.355469 40.566406 14.222656 40.3125 C 13.445312 38.757812 13.605469 39.933594 12.761719 38.738281 C 11.808594 37.382812 11.144531 38.136719 10.535156 37.421875 C 10.359375 37.203125 10.46875 37.203125 10.179688 37.140625 C 9.300781 39.671875 12.171875 39.765625 12.445312 39.90625 C 12.652344 40.007812 12.855469 40.179688 13.082031 40.339844 C 13.503906 40.628906 13.96875 41.007812 14.597656 40.949219 Z M 14.597656 40.949219 "/>
<path style=" stroke:none;fill-rule:evenodd;fill:rgb(0.784314%,0.784314%,0.784314%);fill-opacity:1;" d="M 88.359375 34.324219 C 88.199219 34.503906 88.105469 34.457031 87.695312 34.445312 C 87.421875 34.445312 87.144531 34.457031 86.871094 34.4375 C 86.804688 34.164062 86.804688 32.800781 86.882812 32.519531 L 88.5 32.527344 C 88.78125 32.601562 88.621094 32.546875 88.707031 32.660156 C 88.847656 32.667969 88.902344 32.734375 88.96875 32.894531 C 89.015625 32.996094 88.996094 33.027344 89.035156 33.101562 C 89.125 33.316406 89.050781 33.195312 89.183594 33.308594 L 89.15625 32.273438 L 85.550781 32.273438 L 85.542969 32.394531 C 86.179688 32.40625 86.199219 32.546875 86.1875 33.167969 L 86.1875 36.105469 C 86.199219 36.734375 86.1875 36.921875 85.542969 36.933594 L 85.550781 37.054688 L 89.15625 37.054688 L 89.492188 35.878906 C 89.21875 36.019531 89.164062 36.59375 88.601562 36.742188 C 88.238281 36.847656 87.253906 36.867188 86.917969 36.714844 C 86.816406 36.433594 86.835938 35.105469 86.871094 34.703125 C 87.144531 34.683594 87.882812 34.664062 88.136719 34.710938 C 88.714844 34.804688 88.472656 35.132812 88.707031 35.40625 C 88.863281 35.199219 88.769531 34.0625 88.769531 33.722656 C 88.613281 33.777344 88.722656 33.675781 88.585938 34.070312 C 88.492188 34.34375 88.398438 34.316406 88.359375 34.324219 Z M 88.359375 34.324219 "/>
<path style=" stroke:none;fill-rule:evenodd;fill:rgb(0.784314%,0.784314%,0.784314%);fill-opacity:1;" d="M 112.445312 34.351562 C 112.371094 34.492188 112.40625 34.457031 112.164062 34.476562 L 111.003906 34.4375 C 110.9375 34.175781 110.9375 32.78125 111.003906 32.519531 C 111.136719 32.488281 112.371094 32.441406 112.546875 32.488281 C 112.78125 32.554688 112.613281 32.480469 112.714844 32.601562 C 113.117188 32.546875 113.136719 33.082031 113.277344 33.296875 C 113.285156 33.289062 113.296875 33.25 113.304688 33.261719 L 113.285156 32.273438 C 112.773438 32.273438 109.925781 32.199219 109.695312 32.320312 L 109.945312 32.40625 C 110.097656 32.441406 110.105469 32.414062 110.226562 32.519531 C 110.441406 32.707031 110.347656 34.210938 110.347656 34.636719 C 110.347656 35.144531 110.347656 35.652344 110.359375 36.160156 C 110.359375 36.621094 110.375 36.800781 109.984375 36.902344 L 109.769531 36.96875 C 109.757812 36.96875 109.742188 36.980469 109.730469 36.988281 C 109.722656 36.988281 109.710938 36.996094 109.695312 37.007812 C 109.890625 37.109375 113.089844 37.101562 113.285156 37.007812 C 113.4375 36.828125 113.640625 36.152344 113.6875 35.867188 C 113.324219 36 113.332031 36.574219 112.789062 36.742188 C 112.417969 36.855469 111.445312 36.835938 111.078125 36.734375 C 110.964844 36.339844 110.964844 35.164062 111.042969 34.703125 C 113.492188 34.589844 112.386719 35.199219 112.882812 35.398438 C 112.960938 35.265625 112.960938 33.835938 112.882812 33.703125 C 112.660156 33.796875 112.847656 34.351562 112.445312 34.351562 Z M 112.445312 34.351562 "/>
<path style=" stroke:none;fill-rule:evenodd;fill:rgb(0.784314%,0.784314%,0.784314%);fill-opacity:1;" d="M 75.015625 35.5 C 74.914062 35.660156 74.921875 36.949219 75.015625 37.109375 C 75.175781 37.027344 75.101562 37.027344 75.195312 36.847656 C 75.679688 36.800781 76.960938 37.648438 77.785156 36.574219 C 78.066406 36.226562 78.152344 35.726562 77.917969 35.273438 C 77.71875 34.878906 77.347656 34.683594 76.972656 34.464844 C 76.542969 34.222656 74.800781 33.507812 75.71875 32.6875 C 76.0625 32.375 76.605469 32.441406 77.007812 32.6875 C 77.441406 32.949219 77.488281 33.25 77.625 33.824219 C 77.824219 33.601562 77.738281 32.480469 77.71875 32.207031 C 77.523438 32.300781 77.625 32.292969 77.488281 32.488281 C 76.992188 32.5 76.785156 32.121094 76.082031 32.214844 C 75.585938 32.273438 75.222656 32.574219 75.042969 32.921875 C 74.324219 34.429688 76.664062 34.925781 77.234375 35.566406 C 77.945312 36.394531 76.757812 37.363281 75.644531 36.601562 C 75.074219 36.207031 75.269531 35.625 75.015625 35.5 Z M 75.015625 35.5 "/>
<path style=" stroke:none;fill-rule:evenodd;fill:rgb(0.784314%,0.784314%,0.784314%);fill-opacity:1;" d="M 56.742188 32.320312 C 56.910156 32.640625 57.433594 32 57.433594 33.394531 C 57.425781 33.996094 57.425781 34.597656 57.433594 35.199219 C 57.445312 36.488281 57.882812 37.109375 59.191406 37.128906 C 61.390625 37.167969 61.09375 35.265625 61.09375 33.617188 C 61.09375 32.875 60.941406 32.40625 61.738281 32.394531 L 61.730469 32.273438 C 61.390625 32.273438 60.324219 32.199219 60.109375 32.320312 C 60.289062 32.535156 60.410156 32.273438 60.644531 32.566406 C 60.867188 32.820312 60.8125 34.972656 60.765625 35.472656 C 60.710938 36.027344 60.617188 36.28125 60.289062 36.527344 C 59.988281 36.761719 59.550781 36.882812 59.035156 36.820312 C 58.0625 36.6875 58.070312 35.660156 58.070312 34.75 C 58.070312 34.304688 57.996094 32.808594 58.191406 32.554688 C 58.332031 32.375 58.59375 32.441406 58.746094 32.320312 C 58.546875 32.214844 56.9375 32.214844 56.742188 32.320312 Z M 56.742188 32.320312 "/>
<path style=" stroke:none;fill-rule:evenodd;fill:rgb(0.784314%,0.784314%,0.784314%);fill-opacity:1;" d="M 48.65625 33.515625 C 48.789062 33.269531 48.648438 33.410156 48.808594 33.363281 L 49.535156 35.179688 L 47.984375 35.179688 Z M 47.925781 37.007812 C 47.738281 36.714844 47.199219 37.042969 47.476562 36.292969 C 47.582031 36.027344 47.722656 35.640625 47.863281 35.445312 L 49.648438 35.445312 C 49.789062 35.671875 50.117188 36.414062 50.070312 36.753906 C 50.003906 36.867188 49.75 36.847656 49.648438 37.035156 C 50.109375 37.074219 51.035156 37.109375 51.445312 37.007812 C 51.238281 36.707031 51.070312 37.167969 50.59375 36.007812 L 49.125 32.453125 C 49.039062 32.261719 49.085938 32.28125 48.929688 32.214844 C 48.769531 32.40625 47.984375 34.363281 47.816406 34.757812 C 47.636719 35.179688 47.460938 35.605469 47.28125 36.019531 C 46.75 37.242188 46.65625 36.675781 46.46875 37.007812 C 46.625 37.101562 46.964844 37.054688 47.1875 37.054688 C 47.421875 37.054688 47.757812 37.089844 47.925781 37.007812 Z M 47.925781 37.007812 "/>
<path style=" stroke:none;fill-rule:evenodd;fill:rgb(0.784314%,0.784314%,0.784314%);fill-opacity:1;" d="M 70.898438 35.164062 C 70.917969 35.011719 71.179688 34.476562 71.273438 34.25 C 71.40625 33.949219 71.515625 33.542969 71.722656 33.347656 L 72.472656 35.179688 Z M 70.863281 37.007812 C 70.675781 36.742188 70.152344 37.042969 70.394531 36.300781 C 70.476562 36.046875 70.65625 35.6875 70.777344 35.433594 L 72.582031 35.445312 C 73.472656 37.027344 72.695312 36.820312 72.566406 37.007812 C 72.742188 37.101562 74.210938 37.109375 74.390625 37.007812 C 74.257812 36.820312 74.0625 36.949219 73.828125 36.621094 C 73.6875 36.421875 73.601562 36.199219 73.527344 36.019531 L 72.453125 33.429688 C 72.339844 33.175781 72.105469 32.339844 71.871094 32.214844 C 71.695312 32.367188 70.488281 35.378906 70.207031 36.019531 C 69.664062 37.261719 69.578125 36.675781 69.410156 37.007812 C 69.578125 37.101562 70.675781 37.101562 70.863281 37.007812 Z M 70.863281 37.007812 "/>
<path style=" stroke:none;fill-rule:evenodd;fill:rgb(0.784314%,0.784314%,0.784314%);fill-opacity:1;" d="M 43.097656 32.320312 C 43.605469 32.921875 43.773438 31.386719 43.773438 34.636719 C 43.773438 35.050781 43.855469 36.535156 43.652344 36.78125 C 43.5 36.960938 43.25 36.882812 43.097656 37.007812 C 43.3125 37.121094 44.859375 37.101562 45.074219 37.007812 C 45.007812 36.960938 45.046875 36.980469 44.941406 36.941406 C 44.53125 36.800781 44.425781 36.902344 44.425781 36.214844 C 44.425781 35.738281 44.417969 35.238281 44.4375 34.75 C 44.660156 34.730469 45.296875 34.710938 45.503906 34.757812 C 45.832031 34.8125 45.820312 35.03125 45.898438 35.199219 L 46.019531 35.398438 L 46.027344 34.183594 C 46.027344 33.910156 46.027344 33.882812 45.925781 33.777344 C 45.765625 34.222656 45.960938 34.589844 44.4375 34.417969 L 44.4375 32.527344 C 46.980469 32.386719 46.113281 33.101562 46.609375 33.308594 L 46.597656 32.300781 C 46.253906 32.234375 43.265625 32.226562 43.097656 32.320312 Z M 43.097656 32.320312 "/>
<path style=" stroke:none;fill-rule:evenodd;fill:rgb(0%,31.764706%,9.019608%);fill-opacity:1;" d="M 27.144531 58.523438 C 27.59375 59.324219 27.566406 59.433594 28.417969 59.164062 C 28.417969 58.652344 28.304688 58.222656 28.210938 57.75 C 28.136719 57.328125 28.070312 56.808594 27.960938 56.375 L 27.398438 56.433594 C 27.324219 56.847656 27.59375 57.523438 27.621094 58.023438 C 27.464844 57.921875 27.425781 57.824219 27.332031 57.65625 L 26.714844 56.621094 C 26.40625 56.582031 26.097656 56.621094 25.882812 56.761719 C 25.863281 57.089844 26.238281 59.085938 26.351562 59.492188 C 26.566406 59.539062 26.707031 59.492188 26.902344 59.433594 C 26.976562 59.03125 26.660156 58.210938 26.648438 57.703125 C 26.816406 57.863281 27.03125 58.316406 27.144531 58.523438 Z M 27.144531 58.523438 "/>
<path style=" stroke:none;fill-rule:evenodd;fill:rgb(0%,31.764706%,9.019608%);fill-opacity:1;" d="M 28.566406 27.125 C 28.59375 27.359375 28.6875 27.472656 28.894531 27.578125 C 29.269531 27.492188 29.8125 26.691406 30.234375 26.410156 C 30.175781 26.859375 29.539062 27.613281 29.445312 28.140625 C 29.558594 28.339844 29.753906 28.613281 30.019531 28.707031 C 30.109375 28.660156 31.992188 26.964844 32 26.785156 C 31.925781 26.558594 31.851562 26.492188 31.644531 26.390625 C 31.457031 26.484375 30.511719 27.398438 30.382812 27.546875 C 30.4375 27.132812 31.085938 26.382812 31.160156 25.835938 L 30.652344 25.261719 C 30.382812 25.355469 28.726562 26.9375 28.566406 27.125 Z M 28.566406 27.125 "/>
<path style=" stroke:none;fill-rule:evenodd;fill:rgb(0%,31.764706%,9.019608%);fill-opacity:1;" d="M 6.261719 33.957031 C 6.738281 34.203125 7.457031 34.277344 7.8125 34.570312 L 5.96875 34.578125 C 5.867188 34.8125 5.726562 35.066406 5.734375 35.371094 C 5.980469 35.546875 8.074219 36.347656 8.367188 36.320312 C 8.457031 36.179688 8.523438 36.046875 8.515625 35.820312 C 8.046875 35.539062 7.054688 35.378906 6.972656 35.164062 L 8.8125 35.152344 C 8.945312 34.9375 9.058594 34.652344 9.085938 34.410156 C 8.9375 34.296875 6.679688 33.394531 6.429688 33.421875 C 6.335938 33.570312 6.261719 33.75 6.261719 33.957031 Z M 6.261719 33.957031 "/>
<path style=" stroke:none;fill-rule:evenodd;fill:rgb(0.784314%,0.784314%,0.784314%);fill-opacity:1;" d="M 65.769531 33.363281 C 66.257812 32.988281 65.546875 32.527344 67.398438 32.574219 L 67.398438 36.328125 C 67.378906 36.835938 67.242188 36.921875 66.753906 36.933594 L 66.753906 37.054688 C 67.195312 37.054688 68.390625 37.148438 68.691406 37.007812 C 68.671875 36.996094 68.652344 36.96875 68.644531 36.988281 L 68.230469 36.835938 C 67.960938 36.660156 68.074219 35.585938 68.074219 35.085938 C 68.074219 34.457031 68 33.121094 68.09375 32.582031 C 69.917969 32.453125 69.300781 33.214844 69.683594 33.375 C 69.683594 33.375 69.851562 32.347656 69.503906 32.28125 C 69.175781 32.226562 65.941406 32.273438 65.835938 32.292969 Z M 65.769531 33.363281 "/>
<path style=" stroke:none;fill-rule:evenodd;fill:rgb(0.784314%,0.784314%,0.784314%);fill-opacity:1;" d="M 105.484375 33.375 C 105.6875 33.0625 105.578125 32.847656 105.921875 32.648438 C 106.175781 32.519531 106.699219 32.566406 107.027344 32.582031 L 107.046875 36.386719 C 106.988281 37.074219 106.625 36.800781 106.390625 37.007812 C 106.578125 37.109375 108.148438 37.109375 108.335938 37.007812 C 108.167969 36.726562 107.738281 37.148438 107.710938 36.386719 L 107.710938 32.582031 C 109.570312 32.460938 108.9375 33.140625 109.300781 33.382812 C 109.300781 33.375 109.308594 33.335938 109.308594 33.347656 C 109.320312 33.355469 109.328125 33.316406 109.328125 33.308594 L 109.28125 32.28125 L 105.453125 32.273438 C 105.4375 32.480469 105.351562 33.214844 105.484375 33.375 Z M 105.484375 33.375 "/>
<path style=" stroke:none;fill-rule:evenodd;fill:rgb(0.784314%,0.784314%,0.784314%);fill-opacity:1;" d="M 81.464844 42.429688 C 81.464844 42.191406 81.472656 42.175781 81.6875 42.136719 C 82.109375 42.0625 82.585938 42.144531 82.902344 42.390625 C 83.25 42.636719 83.503906 43.085938 83.511719 43.71875 C 83.550781 45.242188 82.285156 45.730469 81.472656 45.363281 Z M 80.574219 41.976562 C 80.675781 42.015625 80.789062 42.023438 80.863281 42.128906 C 81.03125 42.335938 81.03125 45.203125 80.863281 45.429688 C 80.789062 45.523438 80.488281 45.617188 80.488281 45.617188 C 80.480469 45.601562 80.460938 45.628906 80.441406 45.636719 C 81.894531 45.65625 84.121094 45.921875 84.121094 43.839844 C 84.121094 41.636719 82.203125 41.882812 80.441406 41.921875 Z M 80.574219 41.976562 "/>
<path style=" stroke:none;fill-rule:evenodd;fill:rgb(0.784314%,0.784314%,0.784314%);fill-opacity:1;" d="M 62.011719 32.320312 C 62.179688 32.621094 62.664062 32.113281 62.675781 33.109375 L 62.675781 36.160156 C 62.675781 37.175781 62.375 36.695312 62.011719 37.007812 C 62.226562 37.121094 65.183594 37.082031 65.640625 37.042969 C 65.734375 36.847656 65.988281 36.007812 65.996094 35.746094 C 65.835938 35.886719 65.78125 36.09375 65.648438 36.28125 C 65.527344 36.460938 65.359375 36.613281 65.152344 36.675781 C 64.863281 36.78125 63.816406 36.78125 63.46875 36.707031 C 63.246094 36.566406 63.300781 33.25 63.347656 32.882812 C 63.421875 32.234375 63.851562 32.554688 64.125 32.320312 C 63.945312 32.214844 62.207031 32.214844 62.011719 32.320312 Z M 62.011719 32.320312 "/>
<path style=" stroke:none;fill-rule:evenodd;fill:rgb(0.784314%,0.784314%,0.784314%);fill-opacity:1;" d="M 61.402344 42.164062 C 62.074219 42.0625 62.636719 42.230469 62.597656 42.925781 C 62.570312 43.519531 62.027344 43.726562 61.390625 43.699219 Z M 60.445312 41.957031 C 60.570312 42.003906 60.699219 42.023438 60.785156 42.128906 C 60.925781 42.304688 60.933594 45.234375 60.773438 45.429688 C 60.699219 45.515625 60.578125 45.542969 60.4375 45.601562 L 61.898438 45.636719 C 61.765625 45.542969 61.617188 45.570312 61.496094 45.46875 C 61.308594 45.296875 61.382812 44.199219 61.390625 43.878906 C 61.878906 43.859375 61.777344 43.886719 62.054688 44.28125 L 63.011719 45.636719 L 63.976562 45.636719 C 63.910156 45.570312 63.992188 45.617188 63.84375 45.535156 C 63.769531 45.488281 63.777344 45.515625 63.683594 45.476562 C 63.535156 45.421875 63.535156 45.429688 63.394531 45.308594 C 63.160156 45.089844 62.449219 44.066406 62.335938 43.839844 C 62.515625 43.671875 63.394531 43.53125 63.171875 42.605469 C 62.953125 41.714844 61.316406 41.902344 60.355469 41.910156 Z M 60.445312 41.957031 "/>
<path style=" stroke:none;fill-rule:evenodd;fill:rgb(0.784314%,0.784314%,0.784314%);fill-opacity:1;" d="M 109.882812 42.164062 C 111.539062 41.84375 111.378906 43.773438 110.078125 43.707031 C 109.863281 43.699219 109.890625 43.707031 109.863281 43.558594 C 109.835938 43.445312 109.863281 42.316406 109.882812 42.164062 Z M 109.09375 42.023438 C 109.160156 42.050781 109.207031 42.070312 109.253906 42.128906 C 109.433594 42.351562 109.347656 44.453125 109.347656 44.902344 C 109.347656 45.675781 109.039062 45.476562 108.84375 45.636719 L 110.367188 45.628906 C 110.039062 45.421875 109.863281 45.636719 109.863281 45.015625 C 109.863281 44.582031 109.835938 44.28125 109.890625 43.867188 C 110.265625 43.839844 110.265625 43.867188 110.453125 44.140625 L 111.480469 45.628906 C 111.707031 45.648438 112.324219 45.703125 112.464844 45.582031 C 112.097656 45.375 112.050781 45.636719 111.5 44.835938 C 111.320312 44.582031 110.964844 44.140625 110.816406 43.839844 C 110.949219 43.707031 110.984375 43.746094 111.179688 43.640625 C 111.304688 43.585938 111.398438 43.519531 111.472656 43.425781 C 111.648438 43.21875 111.722656 42.917969 111.648438 42.605469 C 111.40625 41.714844 109.835938 41.902344 108.84375 41.921875 Z M 109.09375 42.023438 "/>
<path style=" stroke:none;fill-rule:evenodd;fill:rgb(0%,31.764706%,9.019608%);fill-opacity:1;" d="M 22.511719 58.183594 L 22.195312 58.222656 L 22.1875 57.589844 C 22.710938 57.523438 22.671875 57.84375 22.511719 58.183594 Z M 21.707031 57.035156 C 21.363281 57.0625 21.4375 57.269531 21.457031 57.609375 L 21.550781 59.839844 C 21.726562 59.945312 21.960938 59.953125 22.15625 59.867188 C 22.308594 59.753906 22.175781 59.132812 22.234375 58.75 L 22.53125 58.757812 C 22.785156 59.125 22.589844 59.5 22.785156 59.859375 C 23.46875 59.953125 23.429688 59.867188 23.375 59.351562 C 23.300781 58.730469 23.429688 58.851562 23.074219 58.457031 C 23.160156 58.191406 23.28125 58.222656 23.289062 57.835938 C 23.308594 56.949219 22.625 56.933594 21.707031 57.035156 Z M 21.707031 57.035156 "/>
<path style=" stroke:none;fill-rule:evenodd;fill:rgb(0.784314%,0.784314%,0.784314%);fill-opacity:1;" d="M 105.519531 43.726562 C 105.519531 42.824219 105.839844 42.003906 106.773438 42.050781 C 108.28125 42.117188 108.335938 45.507812 106.707031 45.535156 C 105.800781 45.554688 105.519531 44.59375 105.519531 43.726562 Z M 104.949219 44.28125 C 105.453125 46.578125 108.992188 45.96875 108.449219 43.285156 C 108.261719 42.335938 107.316406 41.601562 106.214844 41.910156 C 105.34375 42.164062 104.6875 43.105469 104.949219 44.28125 Z M 104.949219 44.28125 "/>
<path style=" stroke:none;fill-rule:evenodd;fill:rgb(0%,31.764706%,9.019608%);fill-opacity:1;" d="M 11.117188 27.960938 C 10.976562 27.925781 10.9375 27.886719 10.835938 27.800781 C 10.65625 27.660156 10.695312 27.726562 10.648438 27.492188 C 11.078125 27.164062 11.507812 27.605469 11.117188 27.960938 Z M 11.902344 29.570312 C 12.117188 29.488281 12.238281 29.382812 12.296875 29.101562 C 11.996094 28.6875 11.621094 28.640625 11.554688 28.3125 C 11.742188 28.085938 11.882812 28.074219 12.144531 28.292969 C 12.34375 28.460938 12.378906 28.621094 12.6875 28.675781 C 12.914062 28.574219 13.035156 28.453125 13.101562 28.167969 C 12.566406 27.847656 12.558594 27.53125 11.835938 27.492188 C 11.800781 27.019531 11.285156 26.484375 10.75 26.703125 C 10.554688 26.785156 9.816406 27.539062 9.835938 27.746094 C 9.84375 27.886719 11.714844 29.488281 11.902344 29.570312 Z M 11.902344 29.570312 "/>
<path style=" stroke:none;fill-rule:evenodd;fill:rgb(0%,31.764706%,9.019608%);fill-opacity:1;" d="M 23.578125 22.625 C 22.746094 22.71875 23.09375 22.324219 23.316406 21.902344 C 23.429688 21.683594 23.710938 21.101562 23.851562 20.941406 C 24.722656 21.101562 23.84375 22.285156 23.578125 22.625 Z M 22.1875 22.671875 C 22.449219 22.878906 23.140625 23.257812 23.515625 23.257812 C 24.09375 23.257812 24.367188 22.703125 24.5625 22.316406 C 24.785156 21.902344 25.085938 21.316406 24.722656 20.894531 C 24.554688 20.695312 23.832031 20.199219 23.457031 20.1875 C 23.308594 20.375 22.214844 22.429688 22.1875 22.671875 Z M 22.1875 22.671875 "/>
<path style=" stroke:none;fill-rule:evenodd;fill:rgb(0.784314%,0.784314%,0.784314%);fill-opacity:1;" d="M 113.238281 44.167969 C 112.941406 41.535156 115.402344 41.347656 115.578125 43.433594 C 115.664062 44.386719 115.476562 45.25 114.746094 45.488281 C 113.8125 45.777344 113.324219 44.96875 113.238281 44.167969 Z M 112.632812 44.167969 C 113.023438 46.550781 116.582031 46.0625 116.1875 43.386719 C 116.046875 42.457031 115.140625 41.648438 114.042969 41.882812 C 113.0625 42.097656 112.445312 43.050781 112.632812 44.167969 Z M 112.632812 44.167969 "/>
<path style=" stroke:none;fill-rule:evenodd;fill:rgb(0.784314%,0.784314%,0.784314%);fill-opacity:1;" d="M 90.90625 42.089844 C 91.277344 41.921875 91.785156 42.089844 92.019531 42.316406 C 92.644531 42.910156 92.757812 45.082031 91.671875 45.46875 C 89.921875 46.097656 89.558594 42.703125 90.90625 42.089844 Z M 93.039062 44.226562 C 93.273438 43.117188 92.691406 42.144531 91.757812 41.890625 C 90.660156 41.609375 89.707031 42.417969 89.546875 43.273438 C 89.023438 46.042969 92.570312 46.558594 93.039062 44.226562 Z M 93.039062 44.226562 "/>
<path style=" stroke:none;fill-rule:evenodd;fill:rgb(0%,31.764706%,9.019608%);fill-opacity:1;" d="M 35.390625 34.671875 C 35.761719 34.542969 36.089844 34.257812 36.082031 34.871094 C 35.941406 34.964844 35.835938 35.039062 35.574219 35.03125 C 35.425781 34.878906 35.425781 34.898438 35.390625 34.671875 Z M 33.582031 34.664062 C 33.621094 34.917969 33.675781 35.019531 33.777344 35.226562 C 34.164062 35.246094 34.816406 34.71875 34.941406 35.050781 C 35.078125 35.445312 34.285156 35.558594 34.050781 35.765625 C 34.042969 35.992188 34.117188 36.199219 34.226562 36.367188 C 34.425781 36.339844 34.667969 36.1875 34.902344 36.09375 C 35.257812 35.953125 35.238281 35.886719 35.464844 35.632812 C 36.007812 35.660156 36.597656 35.59375 36.660156 35.085938 C 36.707031 34.75 36.390625 33.929688 36.25 33.695312 C 35.882812 33.683594 33.929688 34.503906 33.582031 34.664062 Z M 33.582031 34.664062 "/>
<path style=" stroke:none;fill-rule:evenodd;fill:rgb(0%,31.764706%,9.019608%);fill-opacity:1;" d="M 35.089844 37.554688 C 34.996094 37.121094 35.40625 37.042969 35.773438 36.921875 C 35.988281 36.855469 36.6875 36.613281 36.839844 36.875 C 37.109375 37.328125 35.511719 37.761719 35.089844 37.554688 Z M 35.996094 36.167969 C 35.371094 36.367188 34.519531 36.453125 34.507812 37.234375 C 34.5 38.191406 35.0625 38.4375 35.960938 38.230469 C 36.566406 38.089844 37.382812 37.882812 37.417969 37.175781 C 37.476562 36.292969 36.839844 35.894531 35.996094 36.167969 Z M 35.996094 36.167969 "/>
<path style=" stroke:none;fill-rule:evenodd;fill:rgb(0%,31.764706%,9.019608%);fill-opacity:1;" d="M 28.800781 24.480469 C 28.988281 24.386719 29.183594 24.414062 29.15625 24.6875 C 29.136719 24.933594 28.378906 25.835938 28.183594 25.910156 C 27.960938 26.003906 27.753906 25.9375 27.78125 25.675781 C 27.800781 25.542969 27.960938 25.328125 28.050781 25.214844 C 28.164062 25.082031 28.578125 24.59375 28.800781 24.480469 Z M 28.578125 23.847656 C 28.4375 23.894531 26.414062 25.25 27.425781 26.238281 C 27.621094 26.429688 27.941406 26.730469 28.410156 26.523438 C 28.859375 26.316406 29.539062 25.5625 29.71875 25.140625 C 30.027344 24.414062 29.242188 23.613281 28.578125 23.847656 Z M 28.578125 23.847656 "/>
<path style=" stroke:none;fill-rule:evenodd;fill:rgb(0%,31.764706%,9.019608%);fill-opacity:1;" d="M 17.347656 23.125 C 17.246094 23.257812 17.234375 23.304688 16.992188 23.285156 L 16.816406 22.644531 C 16.964844 22.703125 16.863281 22.625 17.03125 22.757812 Z M 16.011719 21.996094 C 16 22.390625 16.691406 24.441406 16.84375 24.808594 C 17.636719 24.726562 17.273438 24.160156 17.246094 23.914062 C 18.050781 23.191406 17.957031 23.894531 18.292969 23.894531 C 18.5 23.832031 18.675781 23.726562 18.796875 23.578125 C 18.722656 23.285156 17.730469 22.542969 17.507812 22.335938 C 16.75 21.636719 16.738281 21.429688 16.011719 21.996094 Z M 16.011719 21.996094 "/>
<path style=" stroke:none;fill-rule:evenodd;fill:rgb(0.784314%,0.784314%,0.784314%);fill-opacity:1;" d="M 103.210938 43.671875 C 103.394531 43.792969 103.582031 43.6875 103.667969 43.960938 C 103.722656 44.113281 103.707031 44.507812 103.707031 44.675781 C 103.707031 45.195312 103.875 45.457031 103.070312 45.535156 C 101.308594 45.683594 100.972656 42.683594 102.375 42.117188 C 103.640625 41.601562 104.0625 42.972656 104.191406 43.011719 L 104.109375 41.882812 C 104.097656 41.882812 104.089844 41.890625 104.078125 41.902344 L 103.996094 41.957031 C 103.566406 42.238281 102.9375 41.429688 101.878906 42.078125 C 100.550781 42.898438 100.550781 44.875 101.957031 45.523438 C 102.5625 45.808594 103.722656 45.808594 104.199219 45.355469 C 104.230469 44.988281 104.191406 44.601562 104.210938 44.234375 C 104.238281 43.578125 104.511719 43.847656 104.613281 43.640625 C 104.359375 43.613281 103.378906 43.578125 103.210938 43.671875 Z M 103.210938 43.671875 "/>
<path style=" stroke:none;fill-rule:evenodd;fill:rgb(0%,31.764706%,9.019608%);fill-opacity:1;" d="M 24.617188 57.824219 L 24.785156 58.175781 C 24.832031 58.304688 24.863281 58.398438 24.878906 58.570312 L 24.496094 58.578125 Z M 24.429688 59.152344 L 25.113281 59.105469 C 25.300781 59.679688 25.253906 59.707031 25.949219 59.605469 C 25.984375 59.273438 25.152344 57.242188 24.972656 56.882812 C 24.683594 56.808594 24.355469 56.855469 24.160156 56.960938 C 24.039062 57.222656 23.664062 59.445312 23.683594 59.8125 C 24 59.847656 24.046875 59.839844 24.328125 59.726562 Z M 24.429688 59.152344 "/>
<path style=" stroke:none;fill-rule:evenodd;fill:rgb(0%,31.764706%,9.019608%);fill-opacity:1;" d="M 33.441406 33.289062 C 33.21875 32.648438 34.894531 32.09375 35.0625 32.273438 C 35.21875 32.707031 34.769531 32.882812 34.480469 33.035156 C 34.171875 33.195312 33.808594 33.421875 33.441406 33.289062 Z M 34.453125 31.632812 C 33.582031 31.894531 32.234375 32.59375 33.066406 33.65625 C 33.789062 34.558594 35.472656 33.316406 35.652344 32.902344 C 35.800781 32.535156 35.613281 32.09375 35.445312 31.886719 C 35.210938 31.613281 34.949219 31.480469 34.453125 31.632812 Z M 34.453125 31.632812 "/>
<path style=" stroke:none;fill-rule:evenodd;fill:rgb(0%,31.764706%,9.019608%);fill-opacity:1;" d="M 5.324219 36.789062 C 5.734375 36.875 6.109375 36.988281 6.503906 37.082031 C 6.792969 37.15625 7.496094 37.222656 7.53125 37.570312 C 7.605469 38.335938 5.914062 37.46875 5.164062 37.441406 C 5.035156 37.636719 5.007812 37.84375 5.023438 38.078125 C 5.398438 38.230469 6.277344 38.398438 6.71875 38.503906 C 7.4375 38.664062 7.917969 38.484375 8.054688 37.777344 C 8.226562 36.996094 7.777344 36.707031 7.175781 36.554688 C 6.832031 36.46875 5.734375 36.152344 5.464844 36.179688 C 5.363281 36.386719 5.316406 36.535156 5.324219 36.789062 Z M 5.324219 36.789062 "/>
<path style=" stroke:none;fill-rule:evenodd;fill:rgb(0%,31.764706%,9.019608%);fill-opacity:1;" d="M 29.625 58.335938 C 29.464844 58.109375 29.351562 57.761719 29.277344 57.457031 C 29.167969 57.035156 29.082031 56.820312 29.296875 56.488281 C 29.707031 56.421875 29.617188 56.566406 29.792969 56.820312 C 30.027344 56.847656 30.195312 56.789062 30.375 56.726562 C 30.34375 56.046875 29.773438 55.800781 29.121094 56.027344 C 28.539062 56.226562 28.445312 56.601562 28.558594 57.328125 C 28.632812 57.835938 28.8125 58.53125 29.148438 58.765625 C 29.570312 59.050781 30.390625 58.777344 30.746094 58.570312 C 30.824219 58.210938 30.644531 57.394531 30.46875 57.140625 C 30.167969 57.128906 29.859375 57.1875 29.605469 57.328125 L 29.679688 57.722656 C 29.8125 57.808594 30.222656 57.695312 30.046875 58.324219 Z M 29.625 58.335938 "/>
<path style=" stroke:none;fill-rule:evenodd;fill:rgb(0%,31.764706%,9.019608%);fill-opacity:1;" d="M 32.375 32.179688 C 32.628906 32.1875 32.984375 31.90625 33.332031 31.699219 C 33.480469 31.613281 33.535156 31.605469 33.628906 31.472656 C 33.609375 31.21875 33.375 30.851562 33.21875 30.703125 C 33.097656 30.710938 32.9375 30.777344 32.882812 30.851562 C 32.75 31.019531 32.863281 31.003906 32.871094 31.246094 C 32.648438 31.378906 32.722656 31.417969 32.414062 31.433594 C 32.105469 30.859375 32.394531 30.703125 33.3125 30.222656 C 33.640625 30.042969 33.769531 29.96875 33.917969 30.175781 C 34.164062 30.503906 33.347656 30.777344 34.058594 31.199219 C 35.03125 30.9375 34.453125 28.726562 32.757812 29.722656 C 31.476562 30.476562 31.316406 31.097656 32.375 32.179688 Z M 32.375 32.179688 "/>
<path style=" stroke:none;fill-rule:evenodd;fill:rgb(0.784314%,0.784314%,0.784314%);fill-opacity:1;" d="M 96.078125 41.957031 C 96.210938 42.015625 96.304688 42.015625 96.386719 42.097656 C 96.574219 42.296875 96.5 44.246094 96.480469 44.660156 C 96.285156 44.535156 95.519531 43.511719 95.300781 43.238281 C 95.078125 42.964844 94.929688 42.777344 94.695312 42.492188 C 94.460938 42.203125 94.347656 41.769531 93.421875 41.921875 C 93.402344 41.921875 93.394531 41.921875 93.375 41.929688 L 93.300781 41.957031 C 93.289062 41.9375 93.273438 41.96875 93.261719 41.976562 C 93.597656 42.097656 93.964844 42.128906 93.964844 42.597656 C 93.964844 46.316406 94.019531 45.195312 93.46875 45.636719 L 94.675781 45.636719 C 94.65625 45.628906 94.636719 45.628906 94.628906 45.617188 C 94.621094 45.609375 94.601562 45.601562 94.589844 45.601562 L 94.460938 45.542969 C 94.375 45.515625 94.339844 45.496094 94.292969 45.449219 C 94.105469 45.234375 94.1875 43.226562 94.199219 42.796875 C 94.574219 42.945312 96.339844 45.554688 96.667969 45.695312 C 96.808594 45.421875 96.714844 44.039062 96.714844 43.613281 C 96.714844 42.445312 96.574219 42.191406 97.070312 41.976562 L 95.984375 41.921875 Z M 96.078125 41.957031 "/>
<path style=" stroke:none;fill-rule:evenodd;fill:rgb(0%,31.764706%,9.019608%);fill-opacity:1;" d="M 19.855469 58.738281 C 19.855469 58.542969 19.882812 58.457031 19.929688 58.296875 C 19.957031 58.222656 19.96875 58.144531 19.996094 58.089844 C 20.0625 57.9375 20.050781 57.984375 20.089844 57.9375 C 20.144531 58.203125 20.230469 58.4375 20.222656 58.75 Z M 19.246094 59.847656 C 19.742188 59.847656 19.453125 59.652344 19.714844 59.246094 L 20.390625 59.265625 L 20.5 59.847656 L 21.164062 59.859375 C 21.183594 59.546875 20.613281 57.289062 20.472656 56.996094 L 19.695312 57.007812 C 19.546875 57.269531 18.863281 59.59375 18.882812 59.832031 Z M 19.246094 59.847656 "/>
<path style=" stroke:none;fill-rule:evenodd;fill:rgb(0%,31.764706%,9.019608%);fill-opacity:1;" d="M 19.078125 22.371094 C 18.855469 22.429688 18.695312 22.542969 18.546875 22.671875 C 18.808594 23.707031 20.296875 23.199219 20.332031 22.335938 C 20.398438 20.867188 18.011719 21.84375 18.640625 20.933594 C 19.105469 20.894531 18.855469 21.410156 19.566406 20.867188 C 19.601562 19.8125 17.367188 20.394531 17.976562 21.628906 C 18.292969 22.277344 20.023438 21.890625 19.660156 22.523438 C 19.460938 22.871094 19.238281 22.457031 19.078125 22.371094 Z M 19.078125 22.371094 "/>
<path style=" stroke:none;fill-rule:evenodd;fill:rgb(0%,31.764706%,9.019608%);fill-opacity:1;" d="M 13.691406 26.730469 C 13.679688 27.304688 13.378906 27.003906 13.070312 26.945312 C 12.914062 27.039062 12.761719 27.164062 12.679688 27.351562 C 12.847656 27.820312 13.457031 27.859375 13.839844 27.558594 C 14.597656 26.964844 14.578125 25.675781 12.914062 26.003906 C 12.699219 26.042969 12.296875 26.136719 12.25 25.871094 C 12.15625 25.429688 12.621094 25.664062 12.746094 25.714844 C 12.921875 25.617188 13.117188 25.449219 13.164062 25.269531 C 12.574219 24.507812 11.59375 25.222656 11.621094 26.003906 C 11.632812 26.371094 12.015625 26.71875 12.40625 26.730469 C 12.875 26.738281 13.257812 26.4375 13.691406 26.730469 Z M 13.691406 26.730469 "/>
<path style=" stroke:none;fill-rule:evenodd;fill:rgb(0%,31.764706%,9.019608%);fill-opacity:1;" d="M 11.640625 57.742188 C 10.929688 58.730469 13.578125 59.625 13.425781 57.949219 C 13.378906 57.429688 12.667969 57.121094 12.640625 56.742188 C 12.621094 56.582031 12.679688 56.480469 12.847656 56.488281 C 13.203125 56.519531 12.828125 56.875 13.289062 57.007812 C 13.566406 57.089844 13.660156 57.074219 13.707031 56.867188 C 13.96875 55.566406 11.480469 55.6875 11.976562 57.007812 C 12.109375 57.355469 12.800781 57.816406 12.714844 58.144531 C 12.667969 58.351562 12.3125 58.503906 12.257812 58.050781 C 12.21875 57.796875 12.332031 57.816406 12.042969 57.730469 Z M 11.640625 57.742188 "/>
<path style=" stroke:none;fill-rule:evenodd;fill:rgb(0%,31.764706%,9.019608%);fill-opacity:1;" d="M 26.714844 23.464844 C 26.742188 23.21875 26.902344 23.050781 27.042969 22.945312 C 27.246094 22.992188 27.230469 23.003906 27.359375 23.179688 C 27.3125 23.558594 27.03125 23.785156 26.714844 23.464844 Z M 25.648438 24.726562 C 25.957031 24.535156 26.070312 24.179688 26.320312 23.925781 C 26.640625 24.019531 26.714844 24.3125 27.15625 24.300781 C 27.5 24.300781 27.753906 24 27.902344 23.753906 C 28.371094 23.011719 27.546875 22.558594 27.117188 22.25 C 26.675781 21.929688 26.621094 22.25 25.902344 23.265625 C 25.75 23.480469 25.507812 23.800781 25.347656 24.007812 C 25.039062 24.386719 25.253906 24.601562 25.648438 24.726562 Z M 25.648438 24.726562 "/>
<path style=" stroke:none;fill-rule:evenodd;fill:rgb(0.784314%,0.784314%,0.784314%);fill-opacity:1;" d="M 87.332031 42.429688 C 87.332031 42.203125 87.347656 42.15625 87.582031 42.136719 C 88.816406 42.023438 88.835938 44.179688 87.332031 43.746094 Z M 86.460938 41.976562 C 86.480469 41.984375 86.488281 41.984375 86.507812 41.996094 C 86.730469 42.089844 86.804688 42.128906 86.804688 42.484375 L 86.804688 45.074219 C 86.804688 45.488281 86.703125 45.476562 86.460938 45.582031 L 87.742188 45.601562 C 87.722656 45.589844 87.714844 45.582031 87.695312 45.582031 L 87.46875 45.476562 C 87.246094 45.289062 87.332031 44.28125 87.347656 43.945312 C 87.761719 43.953125 88.136719 44.074219 88.539062 43.886719 C 88.828125 43.746094 89.035156 43.472656 89.078125 43.144531 C 89.296875 41.664062 87.292969 41.902344 86.328125 41.910156 Z M 86.460938 41.976562 "/>
<path style=" stroke:none;fill-rule:evenodd;fill:rgb(0.784314%,0.784314%,0.784314%);fill-opacity:1;" d="M 97.539062 41.957031 C 97.546875 41.957031 97.566406 41.96875 97.578125 41.976562 C 97.746094 42.03125 97.820312 42.015625 97.894531 42.15625 C 97.996094 42.324219 98.054688 45.234375 97.875 45.441406 C 97.800781 45.515625 97.726562 45.523438 97.660156 45.554688 L 97.492188 45.617188 C 97.484375 45.601562 97.464844 45.628906 97.453125 45.636719 C 98.117188 45.648438 99.765625 45.683594 100.261719 45.617188 C 100.335938 45.476562 100.382812 45.28125 100.429688 45.128906 C 100.441406 45.101562 100.515625 44.882812 100.515625 44.875 C 100.570312 44.535156 100.550781 44.789062 100.488281 44.695312 C 100.160156 45.167969 100.140625 45.441406 99.417969 45.441406 C 98.644531 45.441406 98.472656 45.523438 98.472656 45.074219 C 98.472656 44.613281 98.4375 44.1875 98.503906 43.753906 C 98.820312 43.746094 99.550781 43.671875 99.738281 43.914062 C 99.945312 44.179688 99.699219 44.273438 99.960938 44.328125 C 99.960938 44 100.039062 43.3125 99.925781 43.058594 C 99.699219 43.332031 100.113281 43.671875 98.472656 43.539062 C 98.464844 43.066406 98.4375 42.578125 98.503906 42.117188 C 100.617188 42.03125 99.851562 42.34375 100.28125 42.710938 C 100.300781 42.464844 100.308594 42.136719 100.234375 41.957031 C 99.914062 41.816406 99.269531 41.910156 98.859375 41.910156 C 98.390625 41.910156 97.914062 41.902344 97.445312 41.921875 Z M 97.539062 41.957031 "/>
<path style=" stroke:none;fill-rule:evenodd;fill:rgb(0%,31.764706%,9.019608%);fill-opacity:1;" d="M 7.925781 30.570312 C 8.214844 30.9375 9.171875 31.652344 9.308594 31.867188 C 8.703125 31.800781 8.054688 31.371094 7.46875 31.359375 C 7.34375 31.492188 7.203125 31.671875 7.195312 31.925781 C 7.503906 32.046875 9.65625 32.648438 9.992188 32.640625 C 10.667969 31.90625 10.011719 31.707031 9.542969 31.246094 C 9.28125 30.992188 8.515625 30.144531 8.195312 30.050781 C 8.054688 30.191406 7.953125 30.34375 7.925781 30.570312 Z M 7.925781 30.570312 "/>
<path style=" stroke:none;fill-rule:evenodd;fill:rgb(0%,31.764706%,9.019608%);fill-opacity:1;" d="M 31.253906 30.324219 C 31.953125 30.042969 31.273438 29.703125 31.101562 29.328125 C 31.1875 29.148438 31.421875 28.988281 31.589844 28.921875 C 31.871094 29.074219 31.824219 29.261719 32.152344 29.476562 C 32.804688 29.203125 32.292969 28.96875 32.066406 28.535156 C 32.160156 28.414062 32.28125 28.292969 32.488281 28.246094 C 32.710938 28.453125 32.796875 28.6875 33.050781 28.847656 C 33.40625 28.761719 33.5 28.574219 33.21875 28.253906 C 32.421875 27.339844 32.582031 27.210938 32.066406 27.613281 C 31.878906 27.765625 31.644531 27.953125 31.441406 28.113281 C 30.054688 29.234375 30.035156 28.902344 30.710938 29.761719 C 30.90625 30.015625 31 30.238281 31.253906 30.324219 Z M 31.253906 30.324219 "/>
<path style=" stroke:none;fill-rule:evenodd;fill:rgb(0%,31.764706%,9.019608%);fill-opacity:1;" d="M 8.523438 29.554688 C 8.636719 29.769531 10.601562 31.125 10.835938 31.179688 C 11.003906 31.03125 11.152344 30.785156 11.292969 30.589844 C 11.472656 30.335938 11.660156 30.164062 11.695312 29.863281 C 11.492188 29.742188 11.566406 29.695312 11.257812 29.65625 L 10.789062 30.316406 C 10.5625 30.25 10.433594 30.144531 10.238281 30.003906 C 10.265625 29.683594 10.535156 29.617188 10.601562 29.269531 C 10.488281 29.101562 10.453125 29.0625 10.191406 29.027344 L 9.777344 29.609375 C 9.574219 29.570312 9.449219 29.476562 9.339844 29.328125 C 9.441406 29.007812 9.730469 28.820312 9.75 28.535156 C 9.609375 28.421875 9.5625 28.359375 9.375 28.328125 C 9.160156 28.535156 8.617188 29.289062 8.523438 29.554688 Z M 8.523438 29.554688 "/>
<path style=" stroke:none;fill-rule:evenodd;fill:rgb(0.784314%,0.784314%,0.784314%);fill-opacity:1;" d="M 57.125 41.976562 C 57.292969 42.03125 57.359375 42.015625 57.445312 42.15625 C 57.574219 42.363281 57.507812 44.507812 57.507812 44.847656 C 57.507812 45.507812 57.445312 45.457031 57.078125 45.601562 L 59.8125 45.636719 L 60.101562 44.6875 C 59.679688 44.902344 59.953125 45.441406 58.96875 45.441406 C 58.183594 45.441406 58.023438 45.523438 58.023438 45.074219 C 58.023438 44.640625 57.984375 44.199219 58.050781 43.753906 C 59.800781 43.585938 59.183594 44.253906 59.492188 44.367188 C 59.53125 43.90625 59.53125 43.519531 59.472656 43.058594 C 59.203125 43.210938 59.707031 43.707031 58.023438 43.539062 C 58.015625 43.078125 57.984375 42.570312 58.050781 42.117188 C 58.304688 42.089844 58.976562 42.078125 59.230469 42.117188 C 59.425781 42.144531 59.53125 42.183594 59.625 42.335938 C 59.6875 42.4375 59.660156 42.417969 59.707031 42.523438 L 59.800781 42.683594 C 59.800781 42.671875 59.820312 42.710938 59.828125 42.71875 C 59.828125 42.464844 59.859375 42.136719 59.78125 41.929688 L 56.996094 41.921875 Z M 57.125 41.976562 "/>
<path style=" stroke:none;fill-rule:evenodd;fill:rgb(0.784314%,0.784314%,0.784314%);fill-opacity:1;" d="M 73.660156 42.757812 L 74.285156 44.214844 L 73.050781 44.207031 Z M 72.621094 45.402344 C 72.613281 45.15625 72.6875 45.054688 72.769531 44.855469 C 72.875 44.613281 72.882812 44.433594 73.105469 44.433594 L 74.40625 44.453125 C 74.511719 44.726562 74.714844 45.082031 74.714844 45.402344 C 74.558594 45.542969 74.492188 45.488281 74.378906 45.636719 C 74.660156 45.648438 75.625 45.703125 75.773438 45.582031 C 75.53125 45.449219 75.53125 45.5625 75.34375 45.308594 C 75.25 45.167969 75.183594 44.988281 75.109375 44.808594 C 74.902344 44.328125 73.976562 41.957031 73.835938 41.855469 C 73.667969 42.003906 73.445312 42.652344 73.359375 42.851562 C 73.144531 43.359375 72.480469 45.234375 72.105469 45.488281 C 71.910156 45.617188 72.050781 45.441406 71.910156 45.636719 C 72.152344 45.648438 72.882812 45.703125 73.03125 45.582031 C 72.835938 45.488281 72.789062 45.523438 72.621094 45.402344 Z M 72.621094 45.402344 "/>
<path style=" stroke:none;fill-rule:evenodd;fill:rgb(0%,31.764706%,9.019608%);fill-opacity:1;" d="M 15.410156 57.628906 C 14.765625 57.441406 14.578125 57.761719 14.738281 56.941406 L 15.636719 57.027344 C 15.683594 56.902344 15.710938 56.753906 15.683594 56.566406 C 15.355469 56.480469 14.496094 56.300781 14.167969 56.328125 C 14.035156 56.867188 13.660156 58.636719 13.71875 59.105469 C 13.980469 59.199219 14.953125 59.359375 15.253906 59.351562 C 15.328125 59.105469 15.363281 59.066406 15.28125 58.824219 L 14.476562 58.691406 C 14.4375 57.601562 14.867188 58.222656 15.410156 58.078125 Z M 15.410156 57.628906 "/>
<path style=" stroke:none;fill-rule:evenodd;fill:rgb(0.784314%,0.784314%,0.784314%);fill-opacity:1;" d="M 64.339844 45.675781 C 64.546875 45.496094 64.535156 45.441406 64.835938 45.542969 C 66.425781 46.109375 66.902344 44.960938 66.660156 44.339844 C 66.3125 43.492188 64.03125 43.125 64.863281 42.257812 C 65.117188 41.984375 65.621094 42.015625 65.949219 42.238281 C 66.390625 42.550781 66.238281 42.84375 66.4375 43.085938 C 66.558594 42.898438 66.492188 42.144531 66.484375 41.863281 C 66.230469 41.949219 66.378906 42.136719 65.976562 41.996094 C 65.460938 41.816406 64.910156 41.683594 64.472656 42.257812 C 63.574219 43.417969 65.660156 44.019531 66.070312 44.480469 C 66.667969 45.15625 65.6875 45.863281 64.882812 45.335938 C 64.460938 45.0625 64.554688 44.742188 64.339844 44.488281 Z M 64.339844 45.675781 "/>
<path style=" stroke:none;fill-rule:evenodd;fill:rgb(0.784314%,0.784314%,0.784314%);fill-opacity:1;" d="M 76.242188 45.703125 C 76.503906 45.542969 76.296875 45.410156 76.773438 45.554688 C 76.953125 45.609375 77.140625 45.683594 77.328125 45.714844 C 78.234375 45.824219 78.890625 45.015625 78.554688 44.28125 C 78.199219 43.519531 75.941406 43.085938 76.804688 42.238281 C 77.054688 41.984375 77.542969 42.015625 77.851562 42.230469 C 78.253906 42.523438 78.113281 42.636719 78.328125 43.078125 L 78.394531 41.84375 C 78.132812 42.003906 78.308594 42.144531 77.878906 41.984375 C 77.703125 41.921875 77.503906 41.84375 77.316406 41.835938 C 76.484375 41.796875 75.324219 42.871094 77.148438 43.945312 C 77.375 44.074219 77.8125 44.28125 77.984375 44.460938 C 78.617188 45.140625 77.570312 45.890625 76.792969 45.328125 C 76.355469 45.007812 76.53125 44.894531 76.308594 44.46875 C 76.296875 44.480469 76.289062 44.5 76.289062 44.507812 C 76.195312 44.742188 76.242188 45.421875 76.242188 45.703125 Z M 76.242188 45.703125 "/>
<path style=" stroke:none;fill-rule:evenodd;fill:rgb(0.784314%,0.784314%,0.784314%);fill-opacity:1;" d="M 53.195312 42.089844 C 53.316406 42.175781 53.269531 42.117188 53.363281 42.25 L 54.019531 43.738281 C 54.160156 44.074219 54.308594 44.40625 54.457031 44.761719 C 54.617188 45.140625 54.75 45.609375 54.964844 45.714844 C 55.214844 45.109375 55.488281 44.386719 55.769531 43.726562 C 55.910156 43.386719 56.039062 43.03125 56.171875 42.71875 C 56.527344 41.84375 56.609375 42.222656 56.777344 41.921875 L 55.675781 41.929688 C 55.75 42.050781 55.890625 42.0625 56.03125 42.15625 C 56.078125 42.53125 55.722656 43.226562 55.589844 43.546875 C 55.488281 43.820312 55.179688 44.675781 55.039062 44.820312 C 54.871094 44.554688 53.980469 42.457031 54 42.15625 L 54.308594 41.96875 L 52.941406 41.910156 Z M 53.195312 42.089844 "/>
<path style=" stroke:none;fill-rule:evenodd;fill:rgb(0.784314%,0.784314%,0.784314%);fill-opacity:1;" d="M 69.121094 42.765625 C 69.363281 42.304688 69.1875 42.03125 70.347656 42.15625 L 70.347656 44.960938 C 70.347656 45.488281 70.234375 45.46875 69.925781 45.601562 L 71.359375 45.617188 C 71.058594 45.449219 70.851562 45.636719 70.851562 45.015625 L 70.863281 42.144531 C 72.199219 42.089844 71.769531 42.351562 72.097656 42.796875 C 72.191406 42.652344 72.117188 42.183594 72.097656 41.921875 C 71.515625 41.890625 69.589844 41.863281 69.09375 41.949219 Z M 69.121094 42.765625 "/>
<path style=" stroke:none;fill-rule:evenodd;fill:rgb(0%,31.764706%,9.019608%);fill-opacity:1;" d="M 13.8125 23.6875 C 14.074219 24.328125 14.222656 23.914062 14.585938 23.792969 C 14.972656 24.046875 15.691406 25.335938 16.046875 25.496094 C 16.261719 25.429688 16.414062 25.296875 16.515625 25.15625 C 16.449219 24.761719 15.375 23.738281 15.214844 23.292969 L 15.609375 22.917969 C 15.5625 22.671875 15.46875 22.617188 15.316406 22.511719 C 15.046875 22.597656 13.90625 23.519531 13.8125 23.6875 Z M 13.8125 23.6875 "/>
<path style=" stroke:none;fill-rule:evenodd;fill:rgb(0%,31.764706%,9.019608%);fill-opacity:1;" d="M 21.027344 46.871094 C 20.773438 46.765625 20.761719 46.492188 20.378906 46.652344 C 20.097656 47.078125 20.699219 47.472656 21.054688 47.492188 C 21.671875 47.53125 21.511719 46.824219 21.484375 46.324219 C 21.457031 45.777344 21.363281 45.347656 21.4375 44.734375 C 21.503906 44.085938 21.726562 43.511719 21.027344 43.707031 C 20.820312 44.132812 20.847656 44.78125 20.867188 45.296875 C 20.867188 45.554688 20.867188 45.890625 20.914062 46.128906 C 20.960938 46.417969 21.0625 46.476562 21.027344 46.871094 Z M 21.027344 46.871094 "/>
<path style=" stroke:none;fill-rule:evenodd;fill:rgb(0.784314%,0.784314%,0.784314%);fill-opacity:1;" d="M 84.484375 41.921875 C 84.503906 41.929688 84.523438 41.929688 84.53125 41.9375 C 84.542969 41.9375 84.558594 41.949219 84.570312 41.957031 C 84.589844 41.957031 84.597656 41.96875 84.617188 41.976562 C 84.917969 42.097656 85 42.042969 85 42.542969 C 85 46.398438 85.066406 45.195312 84.484375 45.636719 L 86.03125 45.636719 C 86.019531 45.628906 86 45.628906 85.992188 45.617188 C 85.597656 45.429688 85.523438 45.507812 85.523438 45.015625 C 85.523438 44.488281 85.421875 42.296875 85.628906 42.097656 C 85.738281 41.996094 85.917969 41.984375 86.03125 41.910156 Z M 84.484375 41.921875 "/>
<path style=" stroke:none;fill-rule:evenodd;fill:rgb(0.784314%,0.784314%,0.784314%);fill-opacity:1;" d="M 51.15625 41.910156 C 51.238281 41.976562 51.144531 41.921875 51.277344 41.976562 L 51.546875 42.097656 C 51.753906 42.269531 51.660156 44.441406 51.660156 44.960938 C 51.660156 45.496094 51.613281 45.449219 51.238281 45.601562 L 52.691406 45.636719 L 52.296875 45.46875 C 52.148438 45.347656 52.175781 45.203125 52.175781 45.015625 C 52.175781 41.101562 52.15625 42.363281 52.691406 41.921875 Z M 51.15625 41.910156 "/>
<path style=" stroke:none;fill-rule:evenodd;fill:rgb(0%,31.764706%,9.019608%);fill-opacity:1;" d="M 12.902344 35.152344 C 13.15625 34.824219 13.007812 33.890625 12.96875 33.449219 C 12.914062 32.78125 12.902344 32.300781 12.875 31.625 C 12.304688 31.773438 11.910156 32.59375 12.136719 33.328125 C 12.210938 33.589844 12.761719 35.050781 12.902344 35.152344 Z M 12.902344 35.152344 "/>
<path style=" stroke:none;fill-rule:evenodd;fill:rgb(0%,31.764706%,9.019608%);fill-opacity:1;" d="M 29.457031 35.097656 C 29.605469 35.003906 30.167969 33.476562 30.222656 33.308594 C 30.503906 32.347656 29.8125 31.585938 29.484375 31.605469 C 29.464844 32.019531 29.261719 34.636719 29.390625 34.972656 C 29.429688 35.058594 29.417969 35.050781 29.457031 35.097656 Z M 29.457031 35.097656 "/>
<path style=" stroke:none;fill-rule:evenodd;fill:rgb(0.784314%,0.784314%,0.784314%);fill-opacity:1;" d="M 67.195312 41.910156 C 67.210938 41.921875 67.230469 41.929688 67.242188 41.9375 L 67.597656 42.097656 C 67.707031 42.203125 67.699219 42.34375 67.699219 42.542969 C 67.699219 42.925781 67.800781 45.261719 67.597656 45.457031 L 67.242188 45.617188 C 67.230469 45.609375 67.210938 45.636719 67.195312 45.636719 L 68.53125 45.554688 C 68.222656 45.441406 68.222656 45.394531 68.222656 45.015625 L 68.222656 42.542969 C 68.222656 42.324219 68.214844 42.183594 68.335938 42.078125 C 68.402344 42.023438 68.457031 42.023438 68.523438 41.996094 C 68.585938 41.976562 68.597656 41.976562 68.652344 41.957031 C 68.664062 41.949219 68.691406 41.957031 68.691406 41.9375 C 68.699219 41.921875 68.726562 41.929688 68.738281 41.921875 Z M 67.195312 41.910156 "/>
<path style=" stroke:none;fill-rule:evenodd;fill:rgb(0%,31.764706%,9.019608%);fill-opacity:1;" d="M 9.355469 33.996094 C 9.441406 33.808594 9.535156 33.714844 9.535156 33.449219 C 9.28125 33.28125 7.28125 32.273438 7.019531 32.226562 C 6.457031 32.855469 6.941406 32.914062 7.71875 33.296875 C 8.09375 33.488281 8.945312 33.949219 9.355469 33.996094 Z M 9.355469 33.996094 "/>
<path style=" stroke:none;fill-rule:evenodd;fill:rgb(0%,31.764706%,9.019608%);fill-opacity:1;" d="M 13.042969 24.28125 C 13.089844 24.5 13.082031 24.460938 13.222656 24.613281 C 13.492188 24.933594 14.746094 26.4375 14.867188 26.445312 C 15.101562 26.390625 15.222656 26.257812 15.328125 26.117188 C 15.261719 25.816406 14.671875 25.261719 14.457031 25.007812 C 14.269531 24.78125 13.71875 24.066406 13.464844 23.972656 Z M 13.042969 24.28125 "/>
<path style=" stroke:none;fill-rule:evenodd;fill:rgb(0%,31.764706%,9.019608%);fill-opacity:1;" d="M 24.769531 24.105469 C 24.984375 23.679688 26.125 22.089844 26.132812 21.65625 C 25.964844 21.523438 25.871094 21.457031 25.648438 21.421875 C 25.441406 21.601562 24.957031 22.492188 24.769531 22.804688 C 24.46875 23.285156 23.796875 23.980469 24.769531 24.105469 Z M 24.769531 24.105469 "/>
<path style=" stroke:none;fill-rule:evenodd;fill:rgb(49.411765%,49.411765%,49.411765%);fill-opacity:1;" d="M 112.445312 34.351562 C 112.050781 34.4375 111.445312 34.4375 111.042969 34.390625 L 111.070312 32.566406 L 112.714844 32.601562 C 112.613281 32.480469 112.78125 32.554688 112.546875 32.488281 C 112.371094 32.441406 111.136719 32.488281 111.003906 32.519531 C 110.9375 32.78125 110.9375 34.175781 111.003906 34.4375 L 112.164062 34.476562 C 112.40625 34.457031 112.371094 34.492188 112.445312 34.351562 Z M 112.445312 34.351562 "/>
<path style=" stroke:none;fill-rule:evenodd;fill:rgb(71.372549%,71.372549%,71.372549%);fill-opacity:1;" d="M 88.359375 34.324219 C 87.882812 34.371094 87.414062 34.371094 86.898438 34.371094 L 86.898438 32.582031 C 87.5 32.582031 88.125 32.527344 88.707031 32.660156 C 88.621094 32.546875 88.78125 32.601562 88.5 32.527344 L 86.882812 32.519531 C 86.804688 32.800781 86.804688 34.164062 86.871094 34.4375 C 87.144531 34.457031 87.421875 34.445312 87.695312 34.445312 C 88.105469 34.457031 88.199219 34.503906 88.359375 34.324219 Z M 88.359375 34.324219 "/>
<path style=" stroke:none;fill-rule:evenodd;fill:rgb(88.627451%,92.156863%,89.411765%);fill-opacity:1;" d="M 21.550781 52.246094 C 21.351562 52.460938 21.429688 52.640625 21.101562 52.695312 C 20.78125 52.527344 20.941406 52.386719 20.714844 52.246094 C 20.707031 53.382812 21.839844 52.882812 21.550781 52.246094 Z M 21.550781 52.246094 "/>
</g>
</svg>
